<svg xmlns="http://www.w3.org/2000/svg" xmlns:xlink="http://www.w3.org/1999/xlink" width="500" zoomAndPan="magnify" viewBox="0 0 375 374.999991" height="500" preserveAspectRatio="xMidYMid meet" version="1.0"><defs><filter x="0%" y="0%" width="100%" height="100%" id="9381276699"><feColorMatrix values="0 0 0 0 1 0 0 0 0 1 0 0 0 0 1 0 0 0 1 0" color-interpolation-filters="sRGB"/></filter><g/><clipPath id="320a1ce579"><path d="M 148 14.355469 L 218 14.355469 L 218 62 L 148 62 Z M 148 14.355469 " clip-rule="nonzero"/></clipPath><clipPath id="838d16657d"><path d="M 148 14.355469 L 218 14.355469 L 218 62 L 148 62 Z M 148 14.355469 " clip-rule="nonzero"/></clipPath><clipPath id="4aebdce340"><path d="M 39.519531 179 L 67 179 L 67 193 L 39.519531 193 Z M 39.519531 179 " clip-rule="nonzero"/></clipPath><clipPath id="7a2a833602"><path d="M 163.195312 263 L 203.734375 263 L 203.734375 290.078125 L 163.195312 290.078125 Z M 163.195312 263 " clip-rule="nonzero"/></clipPath><clipPath id="e73ccd4bf0"><path d="M 300.347656 179 L 327.519531 179 L 327.519531 192.71875 L 300.347656 192.71875 Z M 300.347656 179 " clip-rule="nonzero"/></clipPath><clipPath id="7f3e52da32"><path d="M 148 14.355469 L 218 14.355469 L 218 62 L 148 62 Z M 148 14.355469 " clip-rule="nonzero"/></clipPath><mask id="1fbbe2c090"><g filter="url(#9381276699)"><rect x="-37.5" width="450" fill="#000000" y="-37.499999" height="449.999989" fill-opacity="0.25"/></g></mask><clipPath id="29692c8907"><path d="M 67 0.859375 L 69 0.859375 L 69 134.359375 L 67 134.359375 Z M 67 0.859375 " clip-rule="nonzero"/></clipPath><clipPath id="fa9f693d48"><path d="M 0.976562 67 L 134.476562 67 L 134.476562 69 L 0.976562 69 Z M 0.976562 67 " clip-rule="nonzero"/></clipPath><clipPath id="81f2051450"><rect x="0" width="135" y="0" height="135"/></clipPath></defs><g clip-path="url(#320a1ce579)"><path fill="#dbbe67" d="M 201.242188 59.074219 C 200.5 59.074219 199.886719 58.476562 199.886719 57.71875 C 199.886719 56.976562 200.5 56.363281 201.242188 56.363281 C 202 56.363281 202.597656 56.976562 202.597656 57.71875 C 202.597656 58.476562 202 59.074219 201.242188 59.074219 Z M 195.117188 59.074219 C 194.375 59.074219 193.761719 58.476562 193.761719 57.71875 C 193.761719 56.976562 194.375 56.363281 195.117188 56.363281 C 195.875 56.363281 196.472656 56.976562 196.472656 57.71875 C 196.472656 58.476562 195.875 59.074219 195.117188 59.074219 Z M 188.992188 59.074219 C 188.25 59.074219 187.640625 58.476562 187.640625 57.71875 C 187.640625 56.976562 188.25 56.363281 188.992188 56.363281 C 189.738281 56.363281 190.351562 56.976562 190.351562 57.71875 C 190.351562 58.476562 189.738281 59.074219 188.992188 59.074219 Z M 182.949219 59.058594 C 182.242188 59.011719 181.679688 58.453125 181.679688 57.71875 C 181.679688 57 182.242188 56.429688 182.949219 56.378906 C 183.660156 56.429688 184.222656 57 184.222656 57.71875 C 184.222656 58.453125 183.660156 59.011719 182.949219 59.058594 Z M 176.910156 59.074219 C 176.164062 59.074219 175.554688 58.476562 175.554688 57.71875 C 175.554688 56.976562 176.164062 56.363281 176.910156 56.363281 C 177.652344 56.363281 178.265625 56.976562 178.265625 57.71875 C 178.265625 58.476562 177.652344 59.074219 176.910156 59.074219 Z M 170.785156 59.074219 C 170.027344 59.074219 169.429688 58.476562 169.429688 57.71875 C 169.429688 56.976562 170.027344 56.363281 170.785156 56.363281 C 171.527344 56.363281 172.140625 56.976562 172.140625 57.71875 C 172.140625 58.476562 171.527344 59.074219 170.785156 59.074219 Z M 164.660156 59.074219 C 163.902344 59.074219 163.304688 58.476562 163.304688 57.71875 C 163.304688 56.976562 163.902344 56.363281 164.660156 56.363281 C 165.40625 56.363281 166.015625 56.976562 166.015625 57.71875 C 166.015625 58.476562 165.40625 59.074219 164.660156 59.074219 Z M 199.289062 39.304688 C 198.863281 40.632812 198.957031 42.070312 199.460938 43.371094 C 200.3125 45.550781 201.230469 49.5625 197.867188 51.859375 C 193.085938 55.15625 188.4375 50.890625 187.558594 46.042969 C 186.65625 41.097656 187.851562 37.511719 191.746094 36.316406 C 195.621094 35.121094 182.875 14.355469 182.875 14.355469 C 182.875 14.355469 170.28125 35.121094 174.160156 36.316406 C 178.050781 37.511719 179.246094 41.097656 178.34375 46.042969 C 177.46875 50.890625 172.816406 55.15625 168.035156 51.859375 C 164.671875 49.5625 165.589844 45.550781 166.441406 43.371094 C 166.945312 42.070312 167.039062 40.632812 166.613281 39.304688 C 163.359375 29.171875 148.160156 29.300781 148.160156 29.300781 C 162.960938 49.773438 162.800781 61.425781 162.800781 61.425781 L 203.101562 61.425781 C 203.101562 61.425781 202.941406 49.773438 217.742188 29.300781 C 217.742188 29.300781 202.546875 29.171875 199.289062 39.304688 " fill-opacity="1" fill-rule="nonzero"/></g><path fill="#dbbe67" d="M 200.78125 64.273438 L 165.125 64.273438 C 163.925781 64.273438 162.957031 65.242188 162.957031 66.4375 C 162.957031 67.636719 163.925781 68.605469 165.125 68.605469 L 200.78125 68.605469 C 201.976562 68.605469 202.945312 67.636719 202.945312 66.4375 C 202.945312 65.242188 201.976562 64.273438 200.78125 64.273438 " fill-opacity="1" fill-rule="nonzero"/><g clip-path="url(#838d16657d)"><path fill="#dbbe67" d="M 201.242188 59.074219 C 200.5 59.074219 199.886719 58.476562 199.886719 57.71875 C 199.886719 56.976562 200.5 56.363281 201.242188 56.363281 C 202 56.363281 202.597656 56.976562 202.597656 57.71875 C 202.597656 58.476562 202 59.074219 201.242188 59.074219 Z M 195.117188 59.074219 C 194.375 59.074219 193.761719 58.476562 193.761719 57.71875 C 193.761719 56.976562 194.375 56.363281 195.117188 56.363281 C 195.875 56.363281 196.472656 56.976562 196.472656 57.71875 C 196.472656 58.476562 195.875 59.074219 195.117188 59.074219 Z M 188.992188 59.074219 C 188.25 59.074219 187.640625 58.476562 187.640625 57.71875 C 187.640625 56.976562 188.25 56.363281 188.992188 56.363281 C 189.738281 56.363281 190.351562 56.976562 190.351562 57.71875 C 190.351562 58.476562 189.738281 59.074219 188.992188 59.074219 Z M 182.949219 59.058594 C 182.242188 59.011719 181.679688 58.453125 181.679688 57.71875 C 181.679688 57 182.242188 56.429688 182.949219 56.378906 C 183.660156 56.429688 184.222656 57 184.222656 57.71875 C 184.222656 58.453125 183.660156 59.011719 182.949219 59.058594 Z M 176.910156 59.074219 C 176.164062 59.074219 175.554688 58.476562 175.554688 57.71875 C 175.554688 56.976562 176.164062 56.363281 176.910156 56.363281 C 177.652344 56.363281 178.265625 56.976562 178.265625 57.71875 C 178.265625 58.476562 177.652344 59.074219 176.910156 59.074219 Z M 170.785156 59.074219 C 170.027344 59.074219 169.429688 58.476562 169.429688 57.71875 C 169.429688 56.976562 170.027344 56.363281 170.785156 56.363281 C 171.527344 56.363281 172.140625 56.976562 172.140625 57.71875 C 172.140625 58.476562 171.527344 59.074219 170.785156 59.074219 Z M 164.660156 59.074219 C 163.902344 59.074219 163.304688 58.476562 163.304688 57.71875 C 163.304688 56.976562 163.902344 56.363281 164.660156 56.363281 C 165.40625 56.363281 166.015625 56.976562 166.015625 57.71875 C 166.015625 58.476562 165.40625 59.074219 164.660156 59.074219 Z M 199.289062 39.304688 C 198.863281 40.632812 198.957031 42.070312 199.460938 43.371094 C 200.3125 45.550781 201.230469 49.5625 197.867188 51.859375 C 193.085938 55.15625 188.4375 50.890625 187.558594 46.042969 C 186.65625 41.097656 187.851562 37.511719 191.746094 36.316406 C 195.621094 35.121094 182.875 14.355469 182.875 14.355469 C 182.875 14.355469 170.28125 35.121094 174.160156 36.316406 C 178.050781 37.511719 179.246094 41.097656 178.34375 46.042969 C 177.46875 50.890625 172.816406 55.15625 168.035156 51.859375 C 164.671875 49.5625 165.589844 45.550781 166.441406 43.371094 C 166.945312 42.070312 167.039062 40.632812 166.613281 39.304688 C 163.359375 29.171875 148.160156 29.300781 148.160156 29.300781 C 162.960938 49.773438 162.800781 61.425781 162.800781 61.425781 L 203.101562 61.425781 C 203.101562 61.425781 202.941406 49.773438 217.742188 29.300781 C 217.742188 29.300781 202.546875 29.171875 199.289062 39.304688 " fill-opacity="1" fill-rule="nonzero"/></g><path fill="#dbbe67" d="M 200.78125 64.273438 L 165.125 64.273438 C 163.925781 64.273438 162.957031 65.242188 162.957031 66.4375 C 162.957031 67.636719 163.925781 68.605469 165.125 68.605469 L 200.78125 68.605469 C 201.976562 68.605469 202.945312 67.636719 202.945312 66.4375 C 202.945312 65.242188 201.976562 64.273438 200.78125 64.273438 " fill-opacity="1" fill-rule="nonzero"/><path fill="#dbbe67" d="M 186.96875 74.972656 C 185.460938 73.082031 182.707031 72.773438 180.816406 74.28125 C 178.925781 75.789062 178.617188 78.542969 180.125 80.433594 C 181.632812 82.324219 184.386719 82.632812 186.277344 81.125 C 188.167969 79.617188 188.476562 76.863281 186.96875 74.972656 " fill-opacity="1" fill-rule="nonzero"/><path fill="#dbbe67" d="M 165.320312 77.292969 C 164.65625 77.882812 164.574219 78.695312 164.550781 79.539062 C 164.53125 80.242188 163.648438 80.269531 163.40625 79.691406 C 162.992188 78.710938 163.183594 77.59375 163.910156 76.800781 C 164.347656 76.320312 165.566406 75.613281 166.117188 76.292969 C 166.425781 76.675781 165.515625 77.117188 165.320312 77.292969 Z M 165.546875 74.796875 C 163.132812 74.796875 161.171875 76.753906 161.171875 79.171875 C 161.171875 81.589844 163.132812 83.550781 165.546875 83.550781 C 167.964844 83.550781 169.925781 81.589844 169.925781 79.171875 C 169.925781 76.753906 167.964844 74.796875 165.546875 74.796875 " fill-opacity="1" fill-rule="nonzero"/><path fill="#dbbe67" d="M 149.332031 82.097656 C 148.941406 82.621094 148.355469 82.914062 148.003906 83.488281 C 147.636719 84.09375 147.457031 84.824219 147.316406 85.511719 C 147.21875 85.992188 146.40625 86.011719 146.324219 85.511719 C 146.164062 84.507812 146.28125 83.570312 146.898438 82.726562 C 147.382812 82.058594 148.246094 81.414062 149.109375 81.550781 C 149.332031 81.582031 149.46875 81.917969 149.332031 82.097656 Z M 149.644531 80.269531 C 147.300781 79.671875 144.917969 81.089844 144.324219 83.433594 C 143.730469 85.777344 145.148438 88.160156 147.492188 88.753906 C 149.832031 89.351562 152.214844 87.933594 152.8125 85.589844 C 153.40625 83.246094 151.988281 80.863281 149.644531 80.269531 " fill-opacity="1" fill-rule="nonzero"/><path fill="#dbbe67" d="M 133.589844 90.570312 C 133.152344 91.039062 132.585938 91.273438 132.238281 91.851562 C 131.90625 92.402344 131.769531 93.132812 131.800781 93.765625 C 131.835938 94.355469 131.023438 94.378906 130.84375 93.894531 C 130.484375 92.921875 130.625 91.988281 131.199219 91.125 C 131.652344 90.441406 132.550781 89.71875 133.421875 89.933594 C 133.707031 90.007812 133.777344 90.367188 133.589844 90.570312 Z M 133.195312 88.890625 C 130.777344 88.890625 128.816406 90.851562 128.816406 93.269531 C 128.816406 95.6875 130.777344 97.648438 133.195312 97.648438 C 135.613281 97.648438 137.574219 95.6875 137.574219 93.269531 C 137.574219 90.851562 135.613281 88.890625 133.195312 88.890625 " fill-opacity="1" fill-rule="nonzero"/><path fill="#dbbe67" d="M 120.726562 101.546875 C 120.234375 101.882812 119.710938 102.027344 119.304688 102.496094 C 118.902344 102.957031 118.707031 103.554688 118.566406 104.136719 C 118.4375 104.675781 117.523438 104.722656 117.429688 104.136719 C 117.269531 103.136719 117.546875 102.203125 118.296875 101.488281 C 118.902344 100.917969 119.949219 100.503906 120.726562 100.945312 C 120.96875 101.082031 120.9375 101.402344 120.726562 101.546875 Z M 120.09375 99.226562 C 117.671875 99.226562 115.714844 101.1875 115.714844 103.605469 C 115.714844 106.023438 117.671875 107.984375 120.09375 107.984375 C 122.507812 107.984375 124.46875 106.023438 124.46875 103.605469 C 124.46875 101.1875 122.507812 99.226562 120.09375 99.226562 " fill-opacity="1" fill-rule="nonzero"/><path fill="#dbbe67" d="M 109.433594 113.390625 C 108.613281 113.953125 107.96875 114.363281 107.855469 115.472656 C 107.808594 115.933594 107.117188 116.101562 106.996094 115.589844 C 106.789062 114.691406 107.003906 113.902344 107.707031 113.28125 C 108.144531 112.894531 108.847656 112.492188 109.433594 112.765625 C 109.699219 112.890625 109.636719 113.253906 109.433594 113.390625 Z M 109.695312 111.511719 C 107.277344 111.511719 105.316406 113.46875 105.316406 115.890625 C 105.316406 118.304688 107.277344 120.265625 109.695312 120.265625 C 112.113281 120.265625 114.074219 118.304688 114.074219 115.890625 C 114.074219 113.46875 112.113281 111.511719 109.695312 111.511719 " fill-opacity="1" fill-rule="nonzero"/><path fill="#dbbe67" d="M 100.6875 128.625 C 100.324219 128.96875 99.898438 129.199219 99.613281 129.625 C 99.332031 130.042969 99.148438 130.597656 99.054688 131.085938 C 98.957031 131.578125 98.304688 131.390625 98.257812 130.980469 C 98.101562 129.679688 98.996094 128.074219 100.484375 128.140625 C 100.722656 128.152344 100.875 128.449219 100.6875 128.625 Z M 100.9375 126.832031 C 98.519531 126.832031 96.558594 128.792969 96.558594 131.210938 C 96.558594 133.628906 98.519531 135.589844 100.9375 135.589844 C 103.355469 135.589844 105.316406 133.628906 105.316406 131.210938 C 105.316406 128.792969 103.355469 126.832031 100.9375 126.832031 " fill-opacity="1" fill-rule="nonzero"/><path fill="#dbbe67" d="M 95.558594 147.0625 C 95.238281 147.542969 94.707031 147.820312 94.394531 148.324219 C 94.070312 148.855469 94.023438 149.5 93.910156 150.097656 C 93.796875 150.695312 93.011719 150.558594 92.835938 150.097656 C 92.507812 149.261719 92.691406 148.351562 93.191406 147.621094 C 93.605469 147.011719 94.414062 146.34375 95.195312 146.433594 C 95.484375 146.464844 95.75 146.769531 95.558594 147.0625 Z M 95.417969 145.355469 C 93 145.355469 91.039062 147.316406 91.039062 149.734375 C 91.039062 152.152344 93 154.113281 95.417969 154.113281 C 97.835938 154.113281 99.796875 152.152344 99.796875 149.734375 C 99.796875 147.316406 97.835938 145.355469 95.417969 145.355469 " fill-opacity="1" fill-rule="nonzero"/><path fill="#dbbe67" d="M 93.96875 165.308594 C 93.496094 165.539062 93 165.644531 92.648438 166.066406 C 92.292969 166.496094 92.195312 167.078125 92.050781 167.601562 C 91.917969 168.078125 91.160156 168.113281 91.046875 167.601562 C 90.699219 166.035156 91.976562 163.722656 93.859375 164.464844 C 94.191406 164.59375 94.367188 165.117188 93.96875 165.308594 Z M 93.714844 162.957031 C 91.296875 162.957031 89.335938 164.917969 89.335938 167.332031 C 89.335938 169.75 91.296875 171.710938 93.714844 171.710938 C 96.132812 171.710938 98.09375 169.75 98.09375 167.332031 C 98.09375 164.917969 96.132812 162.957031 93.714844 162.957031 " fill-opacity="1" fill-rule="nonzero"/><path fill="#dbbe67" d="M 93.960938 102.574219 C 92.644531 107.453125 89.691406 111.714844 88.667969 116.679688 C 88.625 116.890625 88.285156 116.839844 88.292969 116.628906 C 88.46875 112.410156 90.335938 108.695312 91.703125 104.769531 C 93.421875 99.832031 93.980469 88.902344 94.117188 89.484375 C 95.132812 93.875 95.140625 98.210938 93.960938 102.574219 Z M 83.445312 187.648438 C 83.695312 187.742188 73.996094 185.699219 67.941406 178.527344 C 59.582031 168.625 57.703125 161.332031 58 161.875 C 63.53125 172.003906 72.238281 183.554688 83.445312 187.648438 Z M 75.214844 114.199219 C 75.199219 124.214844 71.472656 133.394531 70.019531 143.1875 C 68.519531 153.269531 72.214844 162.859375 77.957031 171.007812 C 78.089844 171.195312 77.785156 171.425781 77.640625 171.253906 C 71.917969 164.605469 68.273438 155.792969 67.957031 146.988281 C 67.554688 135.820312 75.214844 113.40625 75.214844 114.199219 Z M 77.160156 133.332031 C 73.753906 154.113281 77.539062 160.851562 77.453125 160.738281 C 69.269531 149.734375 77.285156 132.546875 77.160156 133.332031 Z M 150.042969 58.898438 C 147.523438 49.8125 137.085938 49.222656 130.902344 55.0625 C 127.3125 58.460938 124.953125 62.65625 123.304688 67.1875 C 121.253906 61.96875 116.113281 58.519531 109.816406 60.867188 C 106.121094 62.246094 102.617188 65.570312 101.660156 69.476562 C 101.09375 71.765625 101.488281 74.363281 102.871094 76.1875 C 103.632812 77.46875 105.019531 78.332031 106.613281 78.332031 C 109.03125 78.332031 110.992188 76.371094 110.992188 73.953125 C 110.992188 71.535156 109.03125 69.578125 106.613281 69.578125 C 106.054688 69.578125 105.523438 69.691406 105.03125 69.882812 C 105.644531 67.621094 107.414062 65.605469 109.980469 64.304688 C 115.492188 61.480469 120.683594 65.421875 121.070312 71.210938 C 121.671875 80.257812 113.710938 89.84375 107.628906 95.648438 C 103.558594 99.523438 99.359375 103.773438 95.644531 108.410156 C 98.339844 104.488281 99.9375 99.328125 99.25 94.566406 C 98.914062 92.257812 98.011719 89.960938 96.296875 88.335938 C 95.554688 87.636719 94.734375 87.058594 93.996094 86.328125 C 93.429688 85.769531 91.296875 84.515625 91.042969 83.921875 C 94.671875 92.550781 90.308594 103.496094 87.394531 111.8125 C 86 115.769531 84.359375 119.628906 82.496094 123.375 C 82.238281 123.878906 81.945312 124.378906 81.621094 124.898438 C 82.5 118.542969 81.878906 111.980469 79.914062 105.878906 C 78.925781 102.800781 77.585938 99.832031 75.894531 97.074219 C 75.148438 95.859375 74.460938 94.644531 73.738281 93.421875 C 73.1875 92.496094 71.425781 91.117188 71.160156 90.214844 C 71.472656 91.273438 71.707031 92.34375 71.910156 93.429688 C 73.980469 104.511719 69.191406 116.394531 66.1875 126.886719 C 63.121094 137.601562 60.285156 149.441406 64.824219 160.183594 C 63.878906 160.183594 61.347656 157.226562 60.644531 156.542969 C 59.269531 155.214844 57.980469 153.785156 56.972656 152.15625 C 54.703125 148.476562 54.425781 145.296875 54.0625 141.035156 C 50.824219 146.25 51.292969 154.121094 52.539062 159.871094 C 53.859375 165.980469 56.675781 171.761719 60.703125 176.542969 C 64.511719 181.066406 69.445312 184.261719 74.421875 187.359375 C 76.511719 188.65625 78.457031 190.050781 80.386719 191.492188 C 77.40625 190.632812 74.257812 190.324219 70.96875 190.828125 C 60.929688 192.382812 54.363281 201.886719 54.898438 211.777344 C 55.449219 221.765625 62.488281 230.796875 73.367188 228.105469 C 82.835938 225.769531 85.800781 210.785156 75.953125 208.414062 C 75.847656 208.390625 75.738281 208.398438 75.628906 208.421875 C 75.386719 208.378906 75.148438 208.347656 74.894531 208.347656 C 72.476562 208.347656 70.519531 210.304688 70.519531 212.726562 C 70.519531 215.144531 72.476562 217.101562 74.894531 217.101562 C 76.734375 217.101562 78.304688 215.96875 78.949219 214.363281 C 80.125 218.113281 78.304688 222.601562 74.144531 224.425781 C 67.804688 227.214844 61.449219 223.613281 59.277344 217.453125 C 55.449219 206.605469 61.804688 193.910156 74.082031 193.8125 C 83.667969 193.734375 92.296875 201.582031 98.765625 207.898438 C 105.65625 214.625 112.167969 221.515625 119.839844 227.347656 C 120.476562 227.828125 121.023438 228.136719 121.769531 227.90625 C 112.097656 215.585938 104.707031 208.015625 101.527344 203.863281 C 95.464844 195.953125 91.515625 188.105469 88.15625 178.734375 C 83.160156 164.792969 81.675781 149.304688 85.507812 134.890625 C 87.171875 128.636719 89.835938 122.621094 93.621094 117.066406 C 97.1875 111.832031 100.6875 106.671875 105.246094 102.296875 C 112.171875 95.621094 120.097656 88.1875 123.113281 78.710938 C 123.542969 77.34375 123.859375 75.980469 124.070312 74.574219 C 125.988281 67.414062 129.582031 59.296875 135.0625 55.855469 C 139.976562 52.773438 146.214844 54.664062 147.164062 60.785156 C 147.613281 63.625 147.019531 66.238281 145.550781 68.0625 C 145.414062 67.550781 145.195312 67.054688 144.867188 66.601562 C 143.449219 64.644531 140.710938 64.207031 138.753906 65.625 C 136.796875 67.042969 136.359375 69.78125 137.777344 71.738281 C 138.714844 73.035156 140.226562 73.644531 141.710938 73.515625 C 144 73.5625 146.335938 72.359375 147.855469 70.554688 C 150.457031 67.484375 151.09375 62.699219 150.042969 58.898438 " fill-opacity="1" fill-rule="nonzero"/><path fill="#dbbe67" d="M 273.375 89.484375 C 273.507812 88.902344 274.070312 99.832031 275.789062 104.769531 C 277.15625 108.695312 279.023438 112.410156 279.195312 116.628906 C 279.203125 116.839844 278.867188 116.890625 278.824219 116.679688 C 277.800781 111.714844 274.847656 107.453125 273.53125 102.574219 C 272.351562 98.210938 272.359375 93.875 273.375 89.484375 Z M 309.492188 161.875 C 309.789062 161.332031 307.910156 168.625 299.550781 178.527344 C 293.496094 185.699219 283.796875 187.742188 284.046875 187.648438 C 295.253906 183.554688 303.960938 172.003906 309.492188 161.875 Z M 299.535156 146.988281 C 299.21875 155.792969 295.570312 164.605469 289.851562 171.253906 C 289.703125 171.425781 289.398438 171.195312 289.535156 171.007812 C 295.277344 162.859375 298.972656 153.269531 297.472656 143.1875 C 296.015625 133.394531 292.292969 124.214844 292.273438 114.199219 C 292.273438 113.40625 299.9375 135.820312 299.535156 146.988281 Z M 290.039062 160.738281 C 289.953125 160.851562 293.734375 154.113281 290.332031 133.332031 C 290.203125 132.546875 298.222656 149.734375 290.039062 160.738281 Z M 219.636719 70.554688 C 221.15625 72.359375 223.492188 73.5625 225.777344 73.515625 C 227.261719 73.644531 228.773438 73.035156 229.710938 71.738281 C 231.128906 69.78125 230.695312 67.042969 228.734375 65.625 C 226.777344 64.207031 224.039062 64.644531 222.621094 66.601562 C 222.292969 67.054688 222.074219 67.550781 221.941406 68.0625 C 220.46875 66.238281 219.878906 63.625 220.328125 60.785156 C 221.277344 54.664062 227.515625 52.773438 232.429688 55.855469 C 237.910156 59.296875 241.503906 67.414062 243.417969 74.574219 C 243.628906 75.980469 243.945312 77.34375 244.363281 78.660156 C 247.394531 88.1875 255.316406 95.621094 262.246094 102.296875 C 266.800781 106.671875 270.304688 111.832031 273.871094 117.066406 C 277.65625 122.621094 280.316406 128.636719 281.980469 134.890625 C 285.816406 149.304688 284.332031 164.792969 279.332031 178.734375 C 275.972656 188.105469 272.023438 195.953125 265.964844 203.863281 C 262.78125 208.015625 255.394531 215.585938 245.71875 227.90625 C 246.46875 228.136719 247.015625 227.828125 247.648438 227.347656 C 255.320312 221.515625 261.835938 214.625 268.726562 207.898438 C 275.195312 201.582031 283.820312 193.734375 293.410156 193.8125 C 305.683594 193.910156 312.039062 206.605469 308.214844 217.453125 C 306.039062 223.613281 299.683594 227.214844 293.34375 224.425781 C 289.1875 222.601562 287.363281 218.113281 288.539062 214.363281 C 289.1875 215.96875 290.757812 217.101562 292.59375 217.101562 C 295.011719 217.101562 296.972656 215.144531 296.972656 212.726562 C 296.972656 210.304688 295.011719 208.347656 292.59375 208.347656 C 292.34375 208.347656 292.101562 208.378906 291.863281 208.421875 C 291.753906 208.398438 291.644531 208.390625 291.539062 208.414062 C 281.6875 210.785156 284.65625 225.769531 294.121094 228.105469 C 305.003906 230.796875 312.039062 221.765625 312.589844 211.777344 C 313.128906 201.886719 306.5625 192.382812 296.523438 190.828125 C 293.230469 190.324219 290.085938 190.632812 287.101562 191.492188 C 289.03125 190.050781 290.976562 188.65625 293.070312 187.359375 C 298.046875 184.261719 302.976562 181.066406 306.789062 176.542969 C 310.8125 171.761719 313.632812 165.980469 314.953125 159.871094 C 316.195312 154.121094 316.664062 146.25 313.429688 141.035156 C 313.0625 145.296875 312.789062 148.476562 310.515625 152.15625 C 309.507812 153.785156 308.21875 155.214844 306.847656 156.542969 C 306.140625 157.226562 303.609375 160.183594 302.667969 160.183594 C 307.203125 149.441406 304.367188 137.601562 301.300781 126.886719 C 298.300781 116.394531 293.507812 104.511719 295.582031 93.429688 C 295.785156 92.34375 296.015625 91.273438 296.332031 90.214844 C 296.0625 91.117188 294.300781 92.496094 293.75 93.421875 C 293.03125 94.644531 292.34375 95.859375 291.597656 97.074219 C 289.90625 99.832031 288.566406 102.800781 287.574219 105.878906 C 285.609375 111.980469 284.992188 118.542969 285.871094 124.898438 C 285.546875 124.378906 285.253906 123.878906 284.992188 123.375 C 283.128906 119.628906 281.492188 115.769531 280.097656 111.8125 C 277.183594 103.496094 272.816406 92.550781 276.445312 83.921875 C 276.195312 84.515625 274.0625 85.769531 273.492188 86.328125 C 272.753906 87.058594 271.933594 87.636719 271.195312 88.335938 C 269.476562 89.960938 268.574219 92.257812 268.242188 94.566406 C 267.554688 99.328125 269.148438 104.488281 271.84375 108.410156 C 268.132812 103.773438 263.929688 99.523438 259.863281 95.648438 C 253.78125 89.84375 245.820312 80.257812 246.417969 71.210938 C 246.808594 65.421875 251.996094 61.480469 257.511719 64.304688 C 260.074219 65.605469 261.84375 67.621094 262.457031 69.882812 C 261.964844 69.691406 261.4375 69.578125 260.875 69.578125 C 258.457031 69.578125 256.496094 71.535156 256.496094 73.953125 C 256.496094 76.371094 258.457031 78.332031 260.875 78.332031 C 262.472656 78.332031 263.855469 77.46875 264.621094 76.1875 C 266.003906 74.363281 266.398438 71.765625 265.828125 69.476562 C 264.871094 65.570312 261.371094 62.246094 257.671875 60.867188 C 251.378906 58.519531 246.238281 61.96875 244.1875 67.1875 C 242.535156 62.65625 240.179688 58.460938 236.585938 55.0625 C 230.40625 49.222656 219.96875 49.8125 217.449219 58.898438 C 216.398438 62.699219 217.03125 67.484375 219.636719 70.554688 " fill-opacity="1" fill-rule="nonzero"/><path fill="#dbbe67" d="M 95.296875 92.550781 C 95.246094 92.15625 94.878906 91.980469 94.582031 92.046875 C 95.011719 95.09375 94.941406 98.125 94.292969 101.160156 C 94.410156 101.113281 94.519531 101.035156 94.605469 100.902344 C 96.058594 98.675781 95.617188 95.046875 95.296875 92.550781 " fill-opacity="1" fill-rule="nonzero"/><path fill="#dbbe67" d="M 102.21875 90.117188 C 102.21875 89.039062 103.09375 88.160156 104.175781 88.160156 C 105.253906 88.160156 106.132812 89.039062 106.132812 90.117188 C 106.132812 91.199219 105.253906 92.074219 104.175781 92.074219 C 103.09375 92.074219 102.21875 91.199219 102.21875 90.117188 " fill-opacity="1" fill-rule="nonzero"/><path fill="#dbbe67" d="M 68.402344 201.117188 C 68.402344 200.035156 69.277344 199.160156 70.355469 199.160156 C 71.4375 199.160156 72.3125 200.035156 72.3125 201.117188 C 72.3125 202.195312 71.4375 203.074219 70.355469 203.074219 C 69.277344 203.074219 68.402344 202.195312 68.402344 201.117188 " fill-opacity="1" fill-rule="nonzero"/><path fill="#dbbe67" d="M 62.199219 208.457031 C 62.199219 207.378906 63.074219 206.5 64.15625 206.5 C 65.234375 206.5 66.113281 207.378906 66.113281 208.457031 C 66.113281 209.539062 65.234375 210.414062 64.15625 210.414062 C 63.074219 210.414062 62.199219 209.539062 62.199219 208.457031 " fill-opacity="1" fill-rule="nonzero"/><path fill="#dbbe67" d="M 64.84375 218.886719 C 64.84375 217.808594 65.722656 216.929688 66.800781 216.929688 C 67.882812 216.929688 68.757812 217.808594 68.757812 218.886719 C 68.757812 219.96875 67.882812 220.84375 66.800781 220.84375 C 65.722656 220.84375 64.84375 219.96875 64.84375 218.886719 " fill-opacity="1" fill-rule="nonzero"/><path fill="#dbbe67" d="M 78.980469 201.117188 C 78.980469 200.035156 79.855469 199.160156 80.9375 199.160156 C 82.019531 199.160156 82.894531 200.035156 82.894531 201.117188 C 82.894531 202.195312 82.019531 203.074219 80.9375 203.074219 C 79.855469 203.074219 78.980469 202.195312 78.980469 201.117188 " fill-opacity="1" fill-rule="nonzero"/><path fill="#dbbe67" d="M 87.382812 208.457031 C 87.382812 207.378906 88.257812 206.5 89.335938 206.5 C 90.417969 206.5 91.292969 207.378906 91.292969 208.457031 C 91.292969 209.539062 90.417969 210.414062 89.335938 210.414062 C 88.257812 210.414062 87.382812 209.539062 87.382812 208.457031 " fill-opacity="1" fill-rule="nonzero"/><path fill="#dbbe67" d="M 93.667969 215.726562 C 93.667969 214.648438 94.542969 213.773438 95.625 213.773438 C 96.703125 213.773438 97.582031 214.648438 97.582031 215.726562 C 97.582031 216.808594 96.703125 217.683594 95.625 217.683594 C 94.542969 217.683594 93.667969 216.808594 93.667969 215.726562 " fill-opacity="1" fill-rule="nonzero"/><path fill="#dbbe67" d="M 102.21875 222.800781 C 102.21875 221.71875 103.09375 220.84375 104.175781 220.84375 C 105.253906 220.84375 106.132812 221.71875 106.132812 222.800781 C 106.132812 223.878906 105.253906 224.757812 104.175781 224.757812 C 103.09375 224.757812 102.21875 223.878906 102.21875 222.800781 " fill-opacity="1" fill-rule="nonzero"/><path fill="#dbbe67" d="M 108.296875 83.550781 C 108.296875 82.46875 109.175781 81.59375 110.253906 81.59375 C 111.335938 81.59375 112.210938 82.46875 112.210938 83.550781 C 112.210938 84.632812 111.335938 85.507812 110.253906 85.507812 C 109.175781 85.507812 108.296875 84.632812 108.296875 83.550781 " fill-opacity="1" fill-rule="nonzero"/><g clip-path="url(#4aebdce340)"><path fill="#dbbe67" d="M 66.800781 185.949219 C 66.921875 186.3125 59.375 193.972656 51.597656 192.515625 C 43.816406 191.054688 46.125 181.328125 39.558594 179.867188 C 39.558594 179.867188 46.25 176.582031 53.179688 183.269531 C 59.058594 188.945312 66.800781 185.949219 66.800781 185.949219 " fill-opacity="1" fill-rule="nonzero"/></g><g clip-path="url(#7a2a833602)"><path fill="#dbbe67" d="M 183.546875 283.933594 C 174.773438 267.898438 183.546875 267.671875 183.546875 267.671875 C 183.546875 267.671875 192.320312 267.898438 183.546875 283.933594 Z M 197.136719 273.992188 C 195.675781 271.15625 194.492188 268.074219 192.222656 265.835938 C 189.949219 263.597656 186.140625 262.15625 183.546875 264.003906 C 180.953125 262.15625 177.140625 263.597656 174.871094 265.835938 C 172.601562 268.074219 171.417969 271.15625 169.957031 273.992188 C 168.5 276.832031 166.503906 279.683594 163.488281 280.707031 C 167.605469 282.214844 172.472656 281.453125 175.941406 278.761719 C 177.351562 283.382812 180.027344 286.769531 183.546875 290.078125 C 187.066406 286.769531 189.738281 283.382812 191.152344 278.761719 C 194.621094 281.453125 199.484375 282.214844 203.605469 280.707031 C 200.589844 279.683594 198.59375 276.832031 197.136719 273.992188 " fill-opacity="1" fill-rule="nonzero"/></g><path fill="#dbbe67" d="M 120.488281 245.355469 C 96.441406 239.085938 82.746094 253.113281 83.105469 252.554688 C 89.410156 242.65625 104.886719 240.667969 115.496094 241.882812 C 131.882812 243.753906 146.632812 252.457031 163.355469 252.257812 C 164.441406 252.246094 161.777344 256.117188 120.488281 245.355469 Z M 133.378906 255.820312 C 119.941406 254.839844 112.167969 261.9375 112.332031 261.71875 C 122.40625 248.484375 136.175781 254.65625 153.140625 256.464844 C 154.078125 256.5625 148.824219 256.949219 133.378906 255.820312 Z M 95.265625 236.386719 C 103.953125 232.367188 114.582031 234.246094 123.410156 236.84375 C 124.28125 237.101562 113.507812 236.445312 108.648438 236.214844 C 104.183594 236.003906 94.867188 236.574219 95.265625 236.386719 Z M 188.746094 228.65625 C 185.648438 224.542969 180.902344 222.019531 175.761719 221.730469 C 172.070312 221.523438 165.726562 222.734375 164.238281 227.765625 C 164.121094 228.160156 164.066406 228.921875 164.105469 229.660156 C 164.101562 229.726562 164.085938 229.785156 164.085938 229.847656 C 164.085938 232.265625 166.046875 234.226562 168.464844 234.226562 C 170.882812 234.226562 172.839844 232.265625 172.839844 229.847656 C 172.839844 227.429688 170.882812 225.472656 168.464844 225.472656 C 168.261719 225.472656 168.070312 225.503906 167.875 225.53125 C 171.699219 222.207031 179.304688 223.480469 182.59375 226.933594 C 184.519531 228.957031 185.4375 232.566406 185.230469 235.304688 C 184.980469 238.609375 183.148438 241.519531 180.769531 243.734375 C 174.867188 249.25 167.945312 250.042969 160.257812 248.570312 C 147.757812 246.136719 136.957031 239.050781 125.511719 233.878906 C 120.839844 231.769531 115.960938 229.695312 110.820312 229.113281 C 105.535156 228.511719 99.972656 229.417969 94.816406 230.617188 C 89.996094 231.738281 85.257812 233.449219 81.035156 236.054688 C 77.496094 238.238281 71.828125 242.238281 71.0625 246.667969 C 77.292969 243.488281 84.730469 240.511719 91.847656 240.511719 C 89.207031 240.535156 84.96875 244.039062 82.929688 245.550781 C 80.089844 247.652344 77.515625 250.109375 75.269531 252.839844 C 70.890625 258.160156 66.570312 265.152344 66.699219 272.273438 C 66.679688 271.269531 77.621094 259.945312 100.660156 254.152344 C 102.929688 253.582031 105.289062 253.445312 107.628906 253.308594 C 109.199219 253.214844 113.167969 253.996094 114.453125 253.304688 C 110.238281 255.6875 106.75 259.207031 104.625 263.632812 C 102.445312 268.1875 100.824219 275.890625 104.09375 280.335938 C 106.089844 276.621094 107.746094 272.589844 110.972656 269.75 C 113.691406 267.351562 117.070312 265.839844 120.535156 264.871094 C 127.617188 262.894531 135.058594 263.046875 142.339844 263.046875 C 155.636719 263.144531 170.832031 264.394531 182.277344 256.253906 C 190.808594 250.175781 195.640625 237.800781 188.746094 228.65625 " fill-opacity="1" fill-rule="nonzero"/><path fill="#dbbe67" d="M 168.710938 267.15625 C 168.710938 267.15625 158.980469 265.238281 148.199219 273.308594 C 140.253906 279.261719 131.996094 277 131.996094 277 C 131.996094 277 145.359375 287.128906 155.378906 278.082031 C 164.941406 269.441406 168.710938 267.15625 168.710938 267.15625 " fill-opacity="1" fill-rule="nonzero"/><path fill="#dbbe67" d="M 201.25 76.292969 C 201.800781 75.613281 203.019531 76.320312 203.460938 76.800781 C 204.183594 77.59375 204.375 78.710938 203.960938 79.691406 C 203.71875 80.269531 202.839844 80.242188 202.816406 79.539062 C 202.792969 78.695312 202.710938 77.882812 202.046875 77.292969 C 201.851562 77.117188 200.941406 76.675781 201.25 76.292969 Z M 197.441406 79.171875 C 197.441406 81.589844 199.402344 83.550781 201.820312 83.550781 C 204.238281 83.550781 206.199219 81.589844 206.199219 79.171875 C 206.199219 76.753906 204.238281 74.796875 201.820312 74.796875 C 199.402344 74.796875 197.441406 76.753906 197.441406 79.171875 " fill-opacity="1" fill-rule="nonzero"/><path fill="#dbbe67" d="M 218.257812 81.550781 C 219.121094 81.414062 219.984375 82.058594 220.472656 82.726562 C 221.085938 83.570312 221.203125 84.507812 221.042969 85.511719 C 220.960938 86.011719 220.152344 85.992188 220.054688 85.511719 C 219.910156 84.824219 219.730469 84.09375 219.363281 83.488281 C 219.011719 82.914062 218.425781 82.621094 218.035156 82.097656 C 217.902344 81.917969 218.035156 81.582031 218.257812 81.550781 Z M 214.558594 85.589844 C 215.152344 87.933594 217.535156 89.351562 219.878906 88.753906 C 222.222656 88.160156 223.636719 85.777344 223.042969 83.433594 C 222.449219 81.089844 220.066406 79.671875 217.722656 80.269531 C 215.378906 80.863281 213.960938 83.246094 214.558594 85.589844 " fill-opacity="1" fill-rule="nonzero"/><path fill="#dbbe67" d="M 233.945312 89.933594 C 234.816406 89.71875 235.714844 90.441406 236.171875 91.125 C 236.746094 91.988281 236.882812 92.921875 236.523438 93.894531 C 236.34375 94.378906 235.53125 94.355469 235.566406 93.765625 C 235.601562 93.132812 235.460938 92.402344 235.128906 91.851562 C 234.78125 91.273438 234.21875 91.039062 233.777344 90.570312 C 233.589844 90.367188 233.660156 90.007812 233.945312 89.933594 Z M 229.792969 93.269531 C 229.792969 95.6875 231.753906 97.648438 234.171875 97.648438 C 236.589844 97.648438 238.550781 95.6875 238.550781 93.269531 C 238.550781 90.851562 236.589844 88.890625 234.171875 88.890625 C 231.753906 88.890625 229.792969 90.851562 229.792969 93.269531 " fill-opacity="1" fill-rule="nonzero"/><path fill="#dbbe67" d="M 246.640625 100.945312 C 247.417969 100.503906 248.46875 100.917969 249.074219 101.488281 C 249.824219 102.203125 250.097656 103.136719 249.9375 104.136719 C 249.84375 104.722656 248.929688 104.675781 248.800781 104.136719 C 248.660156 103.554688 248.464844 102.957031 248.066406 102.496094 C 247.65625 102.027344 247.132812 101.882812 246.640625 101.546875 C 246.429688 101.402344 246.398438 101.082031 246.640625 100.945312 Z M 242.898438 103.605469 C 242.898438 106.023438 244.859375 107.984375 247.277344 107.984375 C 249.695312 107.984375 251.652344 106.023438 251.652344 103.605469 C 251.652344 101.1875 249.695312 99.226562 247.277344 99.226562 C 244.859375 99.226562 242.898438 101.1875 242.898438 103.605469 " fill-opacity="1" fill-rule="nonzero"/><path fill="#dbbe67" d="M 257.933594 112.765625 C 258.519531 112.492188 259.222656 112.894531 259.660156 113.28125 C 260.363281 113.902344 260.582031 114.691406 260.371094 115.589844 C 260.253906 116.101562 259.558594 115.933594 259.511719 115.472656 C 259.398438 114.363281 258.753906 113.953125 257.933594 113.390625 C 257.730469 113.253906 257.667969 112.890625 257.933594 112.765625 Z M 253.296875 115.890625 C 253.296875 118.304688 255.257812 120.265625 257.671875 120.265625 C 260.09375 120.265625 262.050781 118.304688 262.050781 115.890625 C 262.050781 113.46875 260.09375 111.511719 257.671875 111.511719 C 255.257812 111.511719 253.296875 113.46875 253.296875 115.890625 " fill-opacity="1" fill-rule="nonzero"/><path fill="#dbbe67" d="M 266.882812 128.140625 C 268.371094 128.074219 269.265625 129.679688 269.109375 130.980469 C 269.0625 131.390625 268.410156 131.578125 268.316406 131.085938 C 268.21875 130.597656 268.035156 130.042969 267.753906 129.625 C 267.46875 129.199219 267.042969 128.96875 266.679688 128.625 C 266.492188 128.449219 266.644531 128.152344 266.882812 128.140625 Z M 262.050781 131.210938 C 262.050781 133.628906 264.011719 135.589844 266.429688 135.589844 C 268.847656 135.589844 270.808594 133.628906 270.808594 131.210938 C 270.808594 128.792969 268.847656 126.832031 266.429688 126.832031 C 264.011719 126.832031 262.050781 128.792969 262.050781 131.210938 " fill-opacity="1" fill-rule="nonzero"/><path fill="#dbbe67" d="M 272.171875 146.433594 C 272.953125 146.34375 273.761719 147.011719 274.175781 147.621094 C 274.675781 148.351562 274.859375 149.261719 274.535156 150.097656 C 274.355469 150.558594 273.570312 150.695312 273.457031 150.097656 C 273.34375 149.5 273.296875 148.855469 272.972656 148.324219 C 272.660156 147.820312 272.128906 147.542969 271.808594 147.0625 C 271.617188 146.769531 271.882812 146.464844 272.171875 146.433594 Z M 267.570312 149.734375 C 267.570312 152.152344 269.53125 154.113281 271.949219 154.113281 C 274.367188 154.113281 276.328125 152.152344 276.328125 149.734375 C 276.328125 147.316406 274.367188 145.355469 271.949219 145.355469 C 269.53125 145.355469 267.570312 147.316406 267.570312 149.734375 " fill-opacity="1" fill-rule="nonzero"/><path fill="#dbbe67" d="M 273.507812 164.464844 C 275.390625 163.722656 276.671875 166.035156 276.320312 167.601562 C 276.207031 168.113281 275.449219 168.078125 275.320312 167.601562 C 275.171875 167.078125 275.074219 166.496094 274.71875 166.066406 C 274.367188 165.644531 273.871094 165.539062 273.398438 165.308594 C 273 165.117188 273.175781 164.59375 273.507812 164.464844 Z M 269.273438 167.332031 C 269.273438 169.75 271.234375 171.710938 273.652344 171.710938 C 276.070312 171.710938 278.03125 169.75 278.03125 167.332031 C 278.03125 164.917969 276.070312 162.957031 273.652344 162.957031 C 271.234375 162.957031 269.273438 164.917969 269.273438 167.332031 " fill-opacity="1" fill-rule="nonzero"/><path fill="#dbbe67" d="M 265.148438 90.117188 C 265.148438 89.039062 264.273438 88.160156 263.195312 88.160156 C 262.113281 88.160156 261.238281 89.039062 261.238281 90.117188 C 261.238281 91.199219 262.113281 92.074219 263.195312 92.074219 C 264.273438 92.074219 265.148438 91.199219 265.148438 90.117188 " fill-opacity="1" fill-rule="nonzero"/><path fill="#dbbe67" d="M 298.964844 201.117188 C 298.964844 200.035156 298.089844 199.160156 297.011719 199.160156 C 295.929688 199.160156 295.054688 200.035156 295.054688 201.117188 C 295.054688 202.195312 295.929688 203.074219 297.011719 203.074219 C 298.089844 203.074219 298.964844 202.195312 298.964844 201.117188 " fill-opacity="1" fill-rule="nonzero"/><path fill="#dbbe67" d="M 305.171875 208.457031 C 305.171875 207.378906 304.292969 206.5 303.214844 206.5 C 302.132812 206.5 301.257812 207.378906 301.257812 208.457031 C 301.257812 209.539062 302.132812 210.414062 303.214844 210.414062 C 304.292969 210.414062 305.171875 209.539062 305.171875 208.457031 " fill-opacity="1" fill-rule="nonzero"/><path fill="#dbbe67" d="M 302.523438 218.886719 C 302.523438 217.808594 301.648438 216.929688 300.566406 216.929688 C 299.484375 216.929688 298.609375 217.808594 298.609375 218.886719 C 298.609375 219.96875 299.484375 220.84375 300.566406 220.84375 C 301.648438 220.84375 302.523438 219.96875 302.523438 218.886719 " fill-opacity="1" fill-rule="nonzero"/><path fill="#dbbe67" d="M 288.386719 201.117188 C 288.386719 200.035156 287.511719 199.160156 286.429688 199.160156 C 285.351562 199.160156 284.472656 200.035156 284.472656 201.117188 C 284.472656 202.195312 285.351562 203.074219 286.429688 203.074219 C 287.511719 203.074219 288.386719 202.195312 288.386719 201.117188 " fill-opacity="1" fill-rule="nonzero"/><path fill="#dbbe67" d="M 279.984375 208.457031 C 279.984375 207.378906 279.109375 206.5 278.03125 206.5 C 276.949219 206.5 276.074219 207.378906 276.074219 208.457031 C 276.074219 209.539062 276.949219 210.414062 278.03125 210.414062 C 279.109375 210.414062 279.984375 209.539062 279.984375 208.457031 " fill-opacity="1" fill-rule="nonzero"/><path fill="#dbbe67" d="M 273.699219 215.726562 C 273.699219 214.648438 272.824219 213.773438 271.746094 213.773438 C 270.664062 213.773438 269.789062 214.648438 269.789062 215.726562 C 269.789062 216.808594 270.664062 217.683594 271.746094 217.683594 C 272.824219 217.683594 273.699219 216.808594 273.699219 215.726562 " fill-opacity="1" fill-rule="nonzero"/><path fill="#dbbe67" d="M 265.148438 222.800781 C 265.148438 221.71875 264.273438 220.84375 263.195312 220.84375 C 262.113281 220.84375 261.238281 221.71875 261.238281 222.800781 C 261.238281 223.878906 262.113281 224.757812 263.195312 224.757812 C 264.273438 224.757812 265.148438 223.878906 265.148438 222.800781 " fill-opacity="1" fill-rule="nonzero"/><path fill="#dbbe67" d="M 259.070312 83.550781 C 259.070312 82.46875 258.195312 81.59375 257.113281 81.59375 C 256.03125 81.59375 255.15625 82.46875 255.15625 83.550781 C 255.15625 84.632812 256.03125 85.507812 257.113281 85.507812 C 258.195312 85.507812 259.070312 84.632812 259.070312 83.550781 " fill-opacity="1" fill-rule="nonzero"/><g clip-path="url(#e73ccd4bf0)"><path fill="#dbbe67" d="M 300.566406 185.949219 C 300.445312 186.3125 307.992188 193.972656 315.769531 192.515625 C 323.554688 191.054688 321.242188 181.328125 327.808594 179.867188 C 327.808594 179.867188 321.121094 176.582031 314.1875 183.269531 C 308.308594 188.945312 300.566406 185.949219 300.566406 185.949219 " fill-opacity="1" fill-rule="nonzero"/></g><path fill="#dbbe67" d="M 203.335938 252.257812 C 220.0625 252.457031 234.808594 243.753906 251.195312 241.882812 C 261.804688 240.667969 277.285156 242.65625 283.589844 252.554688 C 283.945312 253.113281 270.25 239.085938 246.207031 245.355469 C 204.914062 256.117188 202.25 252.246094 203.335938 252.257812 Z M 213.554688 256.464844 C 230.515625 254.65625 244.289062 248.484375 254.363281 261.71875 C 254.527344 261.9375 246.75 254.839844 233.3125 255.820312 C 217.871094 256.949219 212.613281 256.5625 213.554688 256.464844 Z M 258.042969 236.214844 C 253.1875 236.445312 242.410156 237.101562 243.285156 236.84375 C 252.109375 234.246094 262.742188 232.367188 271.425781 236.386719 C 271.824219 236.574219 262.507812 236.003906 258.042969 236.214844 Z M 184.414062 256.253906 C 195.863281 264.394531 211.054688 263.144531 224.351562 263.046875 C 231.636719 263.046875 239.074219 262.894531 246.15625 264.871094 C 249.625 265.839844 253 267.351562 255.722656 269.75 C 258.945312 272.589844 260.601562 276.621094 262.601562 280.335938 C 265.871094 275.890625 264.25 268.1875 262.066406 263.632812 C 259.945312 259.207031 256.457031 255.6875 252.242188 253.304688 C 253.527344 253.996094 257.492188 253.214844 259.066406 253.308594 C 261.402344 253.445312 263.761719 253.582031 266.03125 254.152344 C 289.074219 259.945312 300.011719 271.269531 299.996094 272.273438 C 300.125 265.152344 295.800781 258.160156 291.421875 252.839844 C 289.179688 250.109375 286.605469 247.652344 283.765625 245.550781 C 281.722656 244.039062 277.484375 240.535156 274.84375 240.511719 C 281.964844 240.511719 289.398438 243.488281 295.632812 246.667969 C 294.867188 242.238281 289.199219 238.238281 285.660156 236.054688 C 281.433594 233.449219 276.695312 231.738281 271.875 230.617188 C 266.71875 229.417969 261.160156 228.511719 255.871094 229.113281 C 250.734375 229.695312 245.851562 231.769531 241.183594 233.878906 C 229.734375 239.050781 218.933594 246.136719 206.433594 248.570312 C 198.75 250.042969 191.824219 249.25 185.921875 243.734375 C 183.542969 241.519531 181.710938 238.609375 181.460938 235.304688 C 181.257812 232.566406 182.171875 228.957031 184.097656 226.933594 C 187.386719 223.480469 194.996094 222.207031 198.820312 225.53125 C 198.625 225.503906 198.429688 225.472656 198.230469 225.472656 C 195.8125 225.472656 193.851562 227.429688 193.851562 229.847656 C 193.851562 232.265625 195.8125 234.226562 198.230469 234.226562 C 200.648438 234.226562 202.605469 232.265625 202.605469 229.847656 C 202.605469 229.785156 202.589844 229.726562 202.589844 229.660156 C 202.625 228.921875 202.570312 228.160156 202.453125 227.765625 C 200.964844 222.734375 194.621094 221.523438 190.929688 221.730469 C 185.789062 222.019531 181.046875 224.542969 177.945312 228.65625 C 171.054688 237.800781 175.886719 250.175781 184.414062 256.253906 " fill-opacity="1" fill-rule="nonzero"/><path fill="#dbbe67" d="M 198.65625 267.15625 C 198.65625 267.15625 208.386719 265.238281 219.167969 273.308594 C 227.117188 279.261719 235.371094 277 235.371094 277 C 235.371094 277 222.007812 287.128906 211.988281 278.082031 C 202.425781 269.441406 198.65625 267.15625 198.65625 267.15625 " fill-opacity="1" fill-rule="nonzero"/><path fill="#dbbe67" d="M 183.351562 87.34375 C 139.25 87.34375 103.363281 123.230469 103.363281 167.332031 C 103.363281 207.398438 132.972656 240.671875 171.464844 246.429688 C 171.546875 246.449219 171.628906 246.472656 171.71875 246.472656 C 172.171875 246.472656 172.539062 246.105469 172.539062 245.652344 C 172.539062 245.222656 172.203125 244.878906 171.78125 244.84375 C 134.132812 239.160156 104.984375 206.554688 104.984375 167.332031 C 104.984375 124.121094 140.140625 88.964844 183.351562 88.964844 C 226.546875 88.964844 261.703125 124.121094 261.703125 167.332031 C 261.703125 206.769531 232.757812 239.441406 194.800781 244.84375 C 194.289062 244.832031 193.921875 245.199219 193.921875 245.652344 C 193.921875 246.105469 194.289062 246.472656 194.742188 246.472656 C 233.527344 240.976562 263.324219 207.609375 263.324219 167.332031 C 263.324219 123.230469 227.457031 87.34375 183.351562 87.34375 " fill-opacity="1" fill-rule="nonzero"/><g clip-path="url(#7f3e52da32)"><path fill="#dbbe67" d="M 201.242188 59.074219 C 200.5 59.074219 199.886719 58.476562 199.886719 57.71875 C 199.886719 56.976562 200.5 56.363281 201.242188 56.363281 C 202 56.363281 202.597656 56.976562 202.597656 57.71875 C 202.597656 58.476562 202 59.074219 201.242188 59.074219 Z M 195.117188 59.074219 C 194.375 59.074219 193.761719 58.476562 193.761719 57.71875 C 193.761719 56.976562 194.375 56.363281 195.117188 56.363281 C 195.875 56.363281 196.472656 56.976562 196.472656 57.71875 C 196.472656 58.476562 195.875 59.074219 195.117188 59.074219 Z M 188.992188 59.074219 C 188.25 59.074219 187.640625 58.476562 187.640625 57.71875 C 187.640625 56.976562 188.25 56.363281 188.992188 56.363281 C 189.738281 56.363281 190.351562 56.976562 190.351562 57.71875 C 190.351562 58.476562 189.738281 59.074219 188.992188 59.074219 Z M 182.949219 59.058594 C 182.242188 59.011719 181.679688 58.453125 181.679688 57.71875 C 181.679688 57 182.242188 56.429688 182.949219 56.378906 C 183.660156 56.429688 184.222656 57 184.222656 57.71875 C 184.222656 58.453125 183.660156 59.011719 182.949219 59.058594 Z M 176.910156 59.074219 C 176.164062 59.074219 175.554688 58.476562 175.554688 57.71875 C 175.554688 56.976562 176.164062 56.363281 176.910156 56.363281 C 177.652344 56.363281 178.265625 56.976562 178.265625 57.71875 C 178.265625 58.476562 177.652344 59.074219 176.910156 59.074219 Z M 170.785156 59.074219 C 170.027344 59.074219 169.429688 58.476562 169.429688 57.71875 C 169.429688 56.976562 170.027344 56.363281 170.785156 56.363281 C 171.527344 56.363281 172.140625 56.976562 172.140625 57.71875 C 172.140625 58.476562 171.527344 59.074219 170.785156 59.074219 Z M 164.660156 59.074219 C 163.902344 59.074219 163.304688 58.476562 163.304688 57.71875 C 163.304688 56.976562 163.902344 56.363281 164.660156 56.363281 C 165.40625 56.363281 166.015625 56.976562 166.015625 57.71875 C 166.015625 58.476562 165.40625 59.074219 164.660156 59.074219 Z M 199.289062 39.304688 C 198.863281 40.632812 198.957031 42.070312 199.460938 43.371094 C 200.3125 45.550781 201.230469 49.5625 197.867188 51.859375 C 193.085938 55.15625 188.4375 50.890625 187.558594 46.042969 C 186.65625 41.097656 187.851562 37.511719 191.746094 36.316406 C 195.621094 35.121094 182.875 14.355469 182.875 14.355469 C 182.875 14.355469 170.28125 35.121094 174.160156 36.316406 C 178.050781 37.511719 179.246094 41.097656 178.34375 46.042969 C 177.46875 50.890625 172.816406 55.15625 168.035156 51.859375 C 164.671875 49.5625 165.589844 45.550781 166.441406 43.371094 C 166.945312 42.070312 167.039062 40.632812 166.613281 39.304688 C 163.359375 29.171875 148.160156 29.300781 148.160156 29.300781 C 162.960938 49.773438 162.800781 61.425781 162.800781 61.425781 L 203.101562 61.425781 C 203.101562 61.425781 202.941406 49.773438 217.742188 29.300781 C 217.742188 29.300781 202.546875 29.171875 199.289062 39.304688 " fill-opacity="1" fill-rule="nonzero"/></g><path fill="#dbbe67" d="M 200.78125 64.273438 L 165.125 64.273438 C 163.925781 64.273438 162.957031 65.242188 162.957031 66.4375 C 162.957031 67.636719 163.925781 68.605469 165.125 68.605469 L 200.78125 68.605469 C 201.976562 68.605469 202.945312 67.636719 202.945312 66.4375 C 202.945312 65.242188 201.976562 64.273438 200.78125 64.273438 " fill-opacity="1" fill-rule="nonzero"/><g mask="url(#1fbbe2c090)"><g transform="matrix(1, 0, 0, 1, 116, 101)"><g clip-path="url(#81f2051450)"><g clip-path="url(#29692c8907)"><path fill="#dbbe67" d="M 67.683594 134.273438 C 67.390625 134.273438 67.15625 134.035156 67.15625 133.742188 L 67.15625 1.386719 C 67.15625 1.09375 67.390625 0.859375 67.683594 0.859375 C 67.976562 0.859375 68.214844 1.09375 68.214844 1.386719 L 68.214844 133.742188 C 68.214844 134.035156 67.976562 134.273438 67.683594 134.273438 Z M 67.683594 134.273438 " fill-opacity="1" fill-rule="nonzero"/></g><path fill="#dbbe67" d="M 79.175781 133.269531 C 78.921875 133.269531 78.699219 133.085938 78.65625 132.832031 L 55.671875 2.484375 C 55.621094 2.195312 55.8125 1.921875 56.101562 1.871094 C 56.390625 1.820312 56.664062 2.011719 56.714844 2.300781 L 79.699219 132.644531 C 79.75 132.933594 79.554688 133.207031 79.269531 133.257812 C 79.238281 133.265625 79.207031 133.269531 79.175781 133.269531 Z M 79.175781 133.269531 " fill-opacity="1" fill-rule="nonzero"/><path fill="#dbbe67" d="M 79.175781 133.269531 C 78.921875 133.269531 78.699219 133.085938 78.65625 132.832031 L 55.671875 2.484375 C 55.621094 2.195312 55.8125 1.921875 56.101562 1.871094 C 56.390625 1.820312 56.664062 2.011719 56.714844 2.300781 L 79.699219 132.644531 C 79.75 132.933594 79.554688 133.207031 79.269531 133.257812 C 79.238281 133.265625 79.207031 133.269531 79.175781 133.269531 Z M 79.175781 133.269531 " fill-opacity="1" fill-rule="nonzero"/><path fill="#dbbe67" d="M 90.320312 130.28125 C 90.101562 130.28125 89.898438 130.148438 89.820312 129.933594 L 44.550781 5.558594 C 44.453125 5.285156 44.59375 4.980469 44.867188 4.882812 C 45.144531 4.78125 45.449219 4.921875 45.546875 5.199219 L 90.816406 129.570312 C 90.914062 129.847656 90.773438 130.148438 90.5 130.25 C 90.441406 130.273438 90.378906 130.28125 90.320312 130.28125 Z M 90.320312 130.28125 " fill-opacity="1" fill-rule="nonzero"/><path fill="#dbbe67" d="M 90.320312 130.28125 C 90.101562 130.28125 89.898438 130.148438 89.820312 129.933594 L 44.550781 5.558594 C 44.453125 5.285156 44.59375 4.980469 44.867188 4.882812 C 45.144531 4.78125 45.449219 4.921875 45.546875 5.199219 L 90.816406 129.570312 C 90.914062 129.847656 90.773438 130.148438 90.5 130.25 C 90.441406 130.273438 90.378906 130.28125 90.320312 130.28125 Z M 90.320312 130.28125 " fill-opacity="1" fill-rule="nonzero"/><path fill="#dbbe67" d="M 100.773438 125.40625 C 100.589844 125.40625 100.414062 125.3125 100.316406 125.140625 L 34.136719 10.519531 C 33.992188 10.265625 34.078125 9.941406 34.332031 9.796875 C 34.582031 9.648438 34.90625 9.734375 35.054688 9.988281 L 101.230469 124.613281 C 101.378906 124.867188 101.292969 125.191406 101.039062 125.335938 C 100.953125 125.382812 100.863281 125.40625 100.773438 125.40625 Z M 100.773438 125.40625 " fill-opacity="1" fill-rule="nonzero"/><path fill="#dbbe67" d="M 100.773438 125.40625 C 100.589844 125.40625 100.414062 125.3125 100.316406 125.140625 L 34.136719 10.519531 C 33.992188 10.265625 34.078125 9.941406 34.332031 9.796875 C 34.582031 9.648438 34.90625 9.734375 35.054688 9.988281 L 101.230469 124.613281 C 101.378906 124.867188 101.292969 125.191406 101.039062 125.335938 C 100.953125 125.382812 100.863281 125.40625 100.773438 125.40625 Z M 100.773438 125.40625 " fill-opacity="1" fill-rule="nonzero"/><path fill="#dbbe67" d="M 110.222656 118.789062 C 110.070312 118.789062 109.921875 118.726562 109.816406 118.601562 L 24.742188 17.210938 C 24.550781 16.988281 24.582031 16.652344 24.804688 16.464844 C 25.03125 16.277344 25.363281 16.304688 25.550781 16.53125 L 110.628906 117.921875 C 110.816406 118.144531 110.785156 118.480469 110.5625 118.667969 C 110.464844 118.75 110.34375 118.789062 110.222656 118.789062 Z M 110.222656 118.789062 " fill-opacity="1" fill-rule="nonzero"/><path fill="#dbbe67" d="M 110.222656 118.789062 C 110.070312 118.789062 109.921875 118.726562 109.816406 118.601562 L 24.742188 17.210938 C 24.550781 16.988281 24.582031 16.652344 24.804688 16.464844 C 25.03125 16.277344 25.363281 16.304688 25.550781 16.53125 L 110.628906 117.921875 C 110.816406 118.144531 110.785156 118.480469 110.5625 118.667969 C 110.464844 118.75 110.34375 118.789062 110.222656 118.789062 Z M 110.222656 118.789062 " fill-opacity="1" fill-rule="nonzero"/><path fill="#dbbe67" d="M 118.378906 110.632812 C 118.257812 110.632812 118.136719 110.59375 118.039062 110.507812 L 16.648438 25.433594 C 16.425781 25.246094 16.394531 24.910156 16.582031 24.6875 C 16.769531 24.464844 17.105469 24.433594 17.328125 24.621094 L 118.71875 109.699219 C 118.945312 109.886719 118.972656 110.21875 118.785156 110.445312 C 118.679688 110.570312 118.53125 110.632812 118.378906 110.632812 Z M 118.378906 110.632812 " fill-opacity="1" fill-rule="nonzero"/><path fill="#dbbe67" d="M 118.378906 110.632812 C 118.257812 110.632812 118.136719 110.59375 118.039062 110.507812 L 16.648438 25.433594 C 16.425781 25.246094 16.394531 24.910156 16.582031 24.6875 C 16.769531 24.464844 17.105469 24.433594 17.328125 24.621094 L 118.71875 109.699219 C 118.945312 109.886719 118.972656 110.21875 118.785156 110.445312 C 118.679688 110.570312 118.53125 110.632812 118.378906 110.632812 Z M 118.378906 110.632812 " fill-opacity="1" fill-rule="nonzero"/><path fill="#dbbe67" d="M 124.996094 101.183594 C 124.90625 101.183594 124.816406 101.160156 124.730469 101.113281 L 10.109375 34.933594 C 9.855469 34.789062 9.769531 34.464844 9.914062 34.210938 C 10.058594 33.957031 10.382812 33.871094 10.636719 34.019531 L 125.261719 100.195312 C 125.515625 100.34375 125.601562 100.667969 125.453125 100.917969 C 125.355469 101.089844 125.179688 101.183594 124.996094 101.183594 Z M 124.996094 101.183594 " fill-opacity="1" fill-rule="nonzero"/><path fill="#dbbe67" d="M 124.996094 101.183594 C 124.90625 101.183594 124.816406 101.160156 124.730469 101.113281 L 10.109375 34.933594 C 9.855469 34.789062 9.769531 34.464844 9.914062 34.210938 C 10.058594 33.957031 10.382812 33.871094 10.636719 34.019531 L 125.261719 100.195312 C 125.515625 100.34375 125.601562 100.667969 125.453125 100.917969 C 125.355469 101.089844 125.179688 101.183594 124.996094 101.183594 Z M 124.996094 101.183594 " fill-opacity="1" fill-rule="nonzero"/><path fill="#dbbe67" d="M 129.871094 90.730469 C 129.8125 90.730469 129.75 90.71875 129.691406 90.699219 L 5.316406 45.429688 C 5.042969 45.328125 4.898438 45.023438 5 44.75 C 5.101562 44.476562 5.402344 44.332031 5.679688 44.433594 L 130.050781 89.703125 C 130.328125 89.800781 130.46875 90.105469 130.367188 90.382812 C 130.289062 90.597656 130.085938 90.730469 129.871094 90.730469 Z M 129.871094 90.730469 " fill-opacity="1" fill-rule="nonzero"/><path fill="#dbbe67" d="M 129.871094 90.730469 C 129.8125 90.730469 129.75 90.71875 129.691406 90.699219 L 5.316406 45.429688 C 5.042969 45.328125 4.898438 45.023438 5 44.75 C 5.101562 44.476562 5.402344 44.332031 5.679688 44.433594 L 130.050781 89.703125 C 130.328125 89.800781 130.46875 90.105469 130.367188 90.382812 C 130.289062 90.597656 130.085938 90.730469 129.871094 90.730469 Z M 129.871094 90.730469 " fill-opacity="1" fill-rule="nonzero"/><path fill="#dbbe67" d="M 132.855469 79.585938 C 132.828125 79.585938 132.796875 79.585938 132.765625 79.578125 L 2.417969 56.59375 C 2.132812 56.542969 1.941406 56.269531 1.992188 55.980469 C 2.042969 55.695312 2.316406 55.5 2.605469 55.550781 L 132.949219 78.535156 C 133.238281 78.585938 133.429688 78.863281 133.378906 79.148438 C 133.332031 79.40625 133.109375 79.585938 132.855469 79.585938 Z M 132.855469 79.585938 " fill-opacity="1" fill-rule="nonzero"/><path fill="#dbbe67" d="M 132.855469 79.585938 C 132.828125 79.585938 132.796875 79.585938 132.765625 79.578125 L 2.417969 56.59375 C 2.132812 56.542969 1.941406 56.269531 1.992188 55.980469 C 2.042969 55.695312 2.316406 55.5 2.605469 55.550781 L 132.949219 78.535156 C 133.238281 78.585938 133.429688 78.863281 133.378906 79.148438 C 133.332031 79.40625 133.109375 79.585938 132.855469 79.585938 Z M 132.855469 79.585938 " fill-opacity="1" fill-rule="nonzero"/><g clip-path="url(#fa9f693d48)"><path fill="#dbbe67" d="M 133.863281 68.09375 L 1.507812 68.09375 C 1.214844 68.09375 0.976562 67.859375 0.976562 67.566406 C 0.976562 67.273438 1.214844 67.035156 1.507812 67.035156 L 133.863281 67.035156 C 134.15625 67.035156 134.390625 67.273438 134.390625 67.566406 C 134.390625 67.859375 134.15625 68.09375 133.863281 68.09375 Z M 133.863281 68.09375 " fill-opacity="1" fill-rule="nonzero"/><path fill="#dbbe67" d="M 133.863281 68.09375 L 1.507812 68.09375 C 1.214844 68.09375 0.976562 67.859375 0.976562 67.566406 C 0.976562 67.273438 1.214844 67.035156 1.507812 67.035156 L 133.863281 67.035156 C 134.15625 67.035156 134.390625 67.273438 134.390625 67.566406 C 134.390625 67.859375 134.15625 68.09375 133.863281 68.09375 Z M 133.863281 68.09375 " fill-opacity="1" fill-rule="nonzero"/></g><path fill="#dbbe67" d="M 2.511719 79.585938 C 2.257812 79.585938 2.035156 79.40625 1.992188 79.148438 C 1.941406 78.863281 2.132812 78.585938 2.417969 78.535156 L 132.765625 55.550781 C 133.050781 55.5 133.328125 55.695312 133.378906 55.980469 C 133.429688 56.269531 133.238281 56.542969 132.949219 56.59375 L 2.605469 79.578125 C 2.574219 79.585938 2.542969 79.585938 2.511719 79.585938 Z M 2.511719 79.585938 " fill-opacity="1" fill-rule="nonzero"/><path fill="#dbbe67" d="M 2.511719 79.585938 C 2.257812 79.585938 2.035156 79.40625 1.992188 79.148438 C 1.941406 78.863281 2.132812 78.585938 2.417969 78.535156 L 132.765625 55.550781 C 133.050781 55.5 133.328125 55.695312 133.378906 55.980469 C 133.429688 56.269531 133.238281 56.542969 132.949219 56.59375 L 2.605469 79.578125 C 2.574219 79.585938 2.542969 79.585938 2.511719 79.585938 Z M 2.511719 79.585938 " fill-opacity="1" fill-rule="nonzero"/><path fill="#dbbe67" d="M 5.496094 90.730469 C 5.28125 90.730469 5.078125 90.597656 5 90.382812 C 4.898438 90.105469 5.042969 89.800781 5.316406 89.703125 L 129.691406 44.433594 C 129.964844 44.335938 130.269531 44.476562 130.367188 44.75 C 130.46875 45.023438 130.328125 45.328125 130.050781 45.429688 L 5.679688 90.699219 C 5.617188 90.71875 5.558594 90.730469 5.496094 90.730469 Z M 5.496094 90.730469 " fill-opacity="1" fill-rule="nonzero"/><path fill="#dbbe67" d="M 5.496094 90.730469 C 5.28125 90.730469 5.078125 90.597656 5 90.382812 C 4.898438 90.105469 5.042969 89.800781 5.316406 89.703125 L 129.691406 44.433594 C 129.964844 44.335938 130.269531 44.476562 130.367188 44.75 C 130.46875 45.023438 130.328125 45.328125 130.050781 45.429688 L 5.679688 90.699219 C 5.617188 90.71875 5.558594 90.730469 5.496094 90.730469 Z M 5.496094 90.730469 " fill-opacity="1" fill-rule="nonzero"/><path fill="#dbbe67" d="M 10.371094 101.183594 C 10.191406 101.183594 10.011719 101.089844 9.914062 100.917969 C 9.769531 100.667969 9.855469 100.34375 10.109375 100.195312 L 124.730469 34.019531 C 124.984375 33.871094 125.308594 33.957031 125.453125 34.210938 C 125.601562 34.464844 125.515625 34.789062 125.261719 34.933594 L 10.636719 101.113281 C 10.554688 101.160156 10.460938 101.183594 10.371094 101.183594 Z M 10.371094 101.183594 " fill-opacity="1" fill-rule="nonzero"/><path fill="#dbbe67" d="M 10.371094 101.183594 C 10.191406 101.183594 10.011719 101.089844 9.914062 100.917969 C 9.769531 100.667969 9.855469 100.34375 10.109375 100.195312 L 124.730469 34.019531 C 124.984375 33.871094 125.308594 33.957031 125.453125 34.210938 C 125.601562 34.464844 125.515625 34.789062 125.261719 34.933594 L 10.636719 101.113281 C 10.554688 101.160156 10.460938 101.183594 10.371094 101.183594 Z M 10.371094 101.183594 " fill-opacity="1" fill-rule="nonzero"/><path fill="#dbbe67" d="M 16.988281 110.632812 C 16.839844 110.632812 16.6875 110.570312 16.582031 110.445312 C 16.394531 110.21875 16.425781 109.886719 16.648438 109.699219 L 118.039062 24.621094 C 118.261719 24.433594 118.597656 24.464844 118.785156 24.6875 C 118.972656 24.910156 118.945312 25.246094 118.71875 25.433594 L 17.328125 110.507812 C 17.230469 110.59375 17.109375 110.632812 16.988281 110.632812 Z M 16.988281 110.632812 " fill-opacity="1" fill-rule="nonzero"/><path fill="#dbbe67" d="M 16.988281 110.632812 C 16.839844 110.632812 16.6875 110.570312 16.582031 110.445312 C 16.394531 110.21875 16.425781 109.886719 16.648438 109.699219 L 118.039062 24.621094 C 118.261719 24.433594 118.597656 24.464844 118.785156 24.6875 C 118.972656 24.910156 118.945312 25.246094 118.71875 25.433594 L 17.328125 110.507812 C 17.230469 110.59375 17.109375 110.632812 16.988281 110.632812 Z M 16.988281 110.632812 " fill-opacity="1" fill-rule="nonzero"/><path fill="#dbbe67" d="M 25.144531 118.789062 C 25.027344 118.789062 24.90625 118.75 24.804688 118.667969 C 24.582031 118.480469 24.550781 118.144531 24.742188 117.921875 L 109.816406 16.53125 C 110.003906 16.304688 110.339844 16.277344 110.5625 16.464844 C 110.785156 16.652344 110.816406 16.988281 110.628906 17.210938 L 25.550781 118.601562 C 25.445312 118.726562 25.296875 118.789062 25.144531 118.789062 Z M 25.144531 118.789062 " fill-opacity="1" fill-rule="nonzero"/><path fill="#dbbe67" d="M 25.144531 118.789062 C 25.027344 118.789062 24.90625 118.75 24.804688 118.667969 C 24.582031 118.480469 24.550781 118.144531 24.742188 117.921875 L 109.816406 16.53125 C 110.003906 16.304688 110.339844 16.277344 110.5625 16.464844 C 110.785156 16.652344 110.816406 16.988281 110.628906 17.210938 L 25.550781 118.601562 C 25.445312 118.726562 25.296875 118.789062 25.144531 118.789062 Z M 25.144531 118.789062 " fill-opacity="1" fill-rule="nonzero"/><path fill="#dbbe67" d="M 34.59375 125.40625 C 34.503906 125.40625 34.414062 125.382812 34.332031 125.335938 C 34.078125 125.191406 33.992188 124.867188 34.136719 124.613281 L 100.316406 9.988281 C 100.460938 9.734375 100.785156 9.648438 101.039062 9.796875 C 101.292969 9.941406 101.378906 10.265625 101.230469 10.519531 L 35.054688 125.140625 C 34.957031 125.3125 34.777344 125.40625 34.59375 125.40625 Z M 34.59375 125.40625 " fill-opacity="1" fill-rule="nonzero"/><path fill="#dbbe67" d="M 34.59375 125.40625 C 34.503906 125.40625 34.414062 125.382812 34.332031 125.335938 C 34.078125 125.191406 33.992188 124.867188 34.136719 124.613281 L 100.316406 9.988281 C 100.460938 9.734375 100.785156 9.648438 101.039062 9.796875 C 101.292969 9.941406 101.378906 10.265625 101.230469 10.519531 L 35.054688 125.140625 C 34.957031 125.3125 34.777344 125.40625 34.59375 125.40625 Z M 34.59375 125.40625 " fill-opacity="1" fill-rule="nonzero"/><path fill="#dbbe67" d="M 45.050781 130.28125 C 44.988281 130.28125 44.929688 130.273438 44.867188 130.25 C 44.59375 130.148438 44.453125 129.847656 44.550781 129.570312 L 89.820312 5.199219 C 89.921875 4.921875 90.222656 4.78125 90.5 4.882812 C 90.773438 4.980469 90.914062 5.285156 90.816406 5.558594 L 45.546875 129.933594 C 45.46875 130.148438 45.265625 130.28125 45.050781 130.28125 Z M 45.050781 130.28125 " fill-opacity="1" fill-rule="nonzero"/><path fill="#dbbe67" d="M 45.050781 130.28125 C 44.988281 130.28125 44.929688 130.273438 44.867188 130.25 C 44.59375 130.148438 44.453125 129.847656 44.550781 129.570312 L 89.820312 5.199219 C 89.921875 4.921875 90.222656 4.78125 90.5 4.882812 C 90.773438 4.980469 90.914062 5.285156 90.816406 5.558594 L 45.546875 129.933594 C 45.46875 130.148438 45.265625 130.28125 45.050781 130.28125 Z M 45.050781 130.28125 " fill-opacity="1" fill-rule="nonzero"/><path fill="#dbbe67" d="M 56.191406 133.269531 C 56.164062 133.269531 56.132812 133.265625 56.101562 133.257812 C 55.8125 133.207031 55.621094 132.933594 55.671875 132.644531 L 78.65625 2.300781 C 78.707031 2.011719 78.980469 1.820312 79.269531 1.871094 C 79.554688 1.921875 79.75 2.195312 79.699219 2.484375 L 56.714844 132.832031 C 56.667969 133.085938 56.445312 133.269531 56.191406 133.269531 Z M 56.191406 133.269531 " fill-opacity="1" fill-rule="nonzero"/></g></g></g><g fill="#ffffff" fill-opacity="1"><g transform="translate(139.583524, 200.412685)"><g><path d="M 54.1875 -1.03125 C 55.957031 -1.03125 57.320312 -1.472656 58.28125 -2.359375 C 59.851562 -3.929688 60.671875 -5.601562 60.734375 -7.375 L 60.734375 -33.484375 L 27.546875 -33.484375 L 27.546875 -7.484375 C 27.546875 -5.703125 28.191406 -4.179688 29.484375 -2.921875 C 30.785156 -1.660156 32.328125 -1.03125 34.109375 -1.03125 L 35.328125 -1.03125 L 35.4375 0 L 4.296875 0 L 4.296875 -1.03125 L 5.640625 -1.03125 C 7.410156 -1.03125 8.925781 -1.660156 10.1875 -2.921875 C 11.445312 -4.179688 12.113281 -5.703125 12.1875 -7.484375 L 12.1875 -64.21875 C 12.113281 -65.988281 11.445312 -67.503906 10.1875 -68.765625 C 8.925781 -70.035156 7.410156 -70.671875 5.640625 -70.671875 L 4.296875 -70.671875 L 4.296875 -71.6875 L 35.4375 -71.6875 L 35.328125 -70.671875 L 34.109375 -70.671875 C 32.328125 -70.671875 30.785156 -70.035156 29.484375 -68.765625 C 28.191406 -67.503906 27.546875 -65.988281 27.546875 -64.21875 L 27.546875 -37.890625 L 60.734375 -37.890625 L 60.734375 -64.21875 C 60.671875 -65.988281 60.003906 -67.503906 58.734375 -68.765625 C 57.472656 -70.035156 55.957031 -70.671875 54.1875 -70.671875 L 52.84375 -70.671875 L 52.84375 -71.6875 L 83.984375 -71.6875 L 83.984375 -70.671875 L 82.65625 -70.671875 C 80.875 -70.671875 79.332031 -70.035156 78.03125 -68.765625 C 76.738281 -67.503906 76.09375 -65.988281 76.09375 -64.21875 L 76.09375 -7.484375 C 76.09375 -5.703125 76.738281 -4.179688 78.03125 -2.921875 C 79.332031 -1.660156 80.875 -1.03125 82.65625 -1.03125 L 83.984375 -1.03125 L 83.984375 0 L 52.84375 0 L 52.84375 -1.03125 Z M 54.1875 -1.03125 "/></g></g></g><g fill="#ffffff" fill-opacity="1"><g transform="translate(70.781084, 328.926699)"><g><path d="M 1.71875 -0.3125 C 2.257812 -0.3125 2.722656 -0.503906 3.109375 -0.890625 C 3.492188 -1.273438 3.695312 -1.738281 3.71875 -2.28125 L 3.71875 -19.671875 C 3.675781 -20.210938 3.519531 -20.609375 3.25 -20.859375 C 2.75 -21.316406 2.238281 -21.546875 1.71875 -21.546875 L 1.3125 -21.546875 L 1.3125 -21.859375 L 13.265625 -21.859375 C 14.285156 -21.859375 15.128906 -21.9375 15.796875 -22.09375 C 16.460938 -22.25 16.867188 -22.359375 17.015625 -22.421875 L 17.015625 -16.953125 L 16.703125 -16.984375 L 16.703125 -17.328125 C 16.703125 -18.617188 16.222656 -19.535156 15.265625 -20.078125 C 14.804688 -20.347656 14.265625 -20.492188 13.640625 -20.515625 L 8.390625 -20.515625 L 8.390625 -11.421875 L 12.515625 -11.421875 C 13.285156 -11.441406 13.921875 -11.707031 14.421875 -12.21875 C 14.921875 -12.726562 15.171875 -13.359375 15.171875 -14.109375 L 15.171875 -14.390625 L 15.484375 -14.390625 L 15.484375 -7.1875 L 15.171875 -7.1875 L 15.171875 -7.4375 C 15.171875 -8.195312 14.925781 -8.828125 14.4375 -9.328125 C 13.945312 -9.828125 13.328125 -10.085938 12.578125 -10.109375 L 8.390625 -10.109375 L 8.390625 -1.34375 L 12.484375 -1.34375 C 14.003906 -1.34375 15.28125 -1.78125 16.3125 -2.65625 C 17.34375 -3.53125 18.109375 -4.769531 18.609375 -6.375 L 18.921875 -6.375 L 17.484375 0 L 1.3125 0 L 1.3125 -0.3125 Z M 1.71875 -0.3125 "/></g></g></g><g fill="#ffffff" fill-opacity="1"><g transform="translate(93.666591, 328.926699)"><g><path d="M 1.5625 -2.90625 C 1.5625 -4.40625 1.882812 -5.6875 2.53125 -6.75 L 2.8125 -6.75 C 2.789062 -6.582031 2.78125 -6.414062 2.78125 -6.25 C 2.78125 -4.8125 3.296875 -3.554688 4.328125 -2.484375 C 5.359375 -1.410156 6.765625 -0.875 8.546875 -0.875 C 9.941406 -0.875 11.03125 -1.207031 11.8125 -1.875 C 12.59375 -2.539062 12.984375 -3.382812 12.984375 -4.40625 C 12.984375 -5.007812 12.789062 -5.550781 12.40625 -6.03125 C 12.019531 -6.507812 11.378906 -7.039062 10.484375 -7.625 L 5.0625 -11.203125 C 3.039062 -12.554688 2.03125 -14.222656 2.03125 -16.203125 C 2.03125 -16.410156 2.050781 -16.617188 2.09375 -16.828125 C 2.21875 -18.472656 2.859375 -19.796875 4.015625 -20.796875 C 5.171875 -21.796875 6.710938 -22.296875 8.640625 -22.296875 C 9.785156 -22.296875 11.203125 -22.191406 12.890625 -21.984375 L 14.859375 -21.984375 L 14.453125 -17.390625 L 14.140625 -17.390625 C 14.140625 -18.472656 13.738281 -19.34375 12.9375 -20 C 12.132812 -20.65625 11.066406 -20.984375 9.734375 -20.984375 C 8.117188 -20.984375 6.945312 -20.484375 6.21875 -19.484375 C 5.84375 -19.003906 5.65625 -18.523438 5.65625 -18.046875 C 5.65625 -17.566406 5.75 -17.160156 5.9375 -16.828125 C 6.226562 -16.285156 6.859375 -15.703125 7.828125 -15.078125 L 13.796875 -11.203125 C 15.671875 -9.972656 16.609375 -8.375 16.609375 -6.40625 C 16.609375 -4.195312 15.851562 -2.503906 14.34375 -1.328125 C 12.832031 -0.148438 10.828125 0.4375 8.328125 0.4375 C 6.921875 0.4375 5.617188 0.265625 4.421875 -0.078125 C 3.222656 -0.421875 2.34375 -0.882812 1.78125 -1.46875 C 1.632812 -1.863281 1.5625 -2.34375 1.5625 -2.90625 Z M 1.5625 -2.90625 "/></g></g></g><g fill="#ffffff" fill-opacity="1"><g transform="translate(114.897462, 328.926699)"><g><path d="M 29.5625 -0.3125 L 30.0625 -0.3125 L 30.0625 0 L 20.703125 0 L 20.703125 -0.28125 L 21.171875 -0.28125 C 21.523438 -0.300781 21.828125 -0.445312 22.078125 -0.71875 C 22.328125 -0.988281 22.429688 -1.289062 22.390625 -1.625 L 21.171875 -12.953125 L 15.296875 -2.84375 C 14.523438 -1.550781 14.128906 -0.394531 14.109375 0.625 L 13.796875 0.625 L 5.78125 -12.859375 L 4.5625 -1.625 C 4.519531 -1.289062 4.625 -0.984375 4.875 -0.703125 C 5.125 -0.421875 5.425781 -0.28125 5.78125 -0.28125 L 6.25 -0.28125 L 6.25 0 L -0.28125 0 L -0.28125 -0.3125 L 0.21875 -0.3125 C 0.800781 -0.3125 1.304688 -0.488281 1.734375 -0.84375 C 2.160156 -1.195312 2.414062 -1.675781 2.5 -2.28125 L 5.09375 -22.296875 L 5.375 -22.296875 L 15.046875 -6.375 L 24.34375 -22.296875 L 24.625 -22.296875 L 27.28125 -2.28125 C 27.382812 -1.675781 27.648438 -1.195312 28.078125 -0.84375 C 28.503906 -0.488281 29 -0.3125 29.5625 -0.3125 Z M 29.5625 -0.3125 "/></g></g></g><g fill="#ffffff" fill-opacity="1"><g transform="translate(147.835684, 328.926699)"><g><path d="M 1.71875 -0.3125 C 2.257812 -0.3125 2.722656 -0.503906 3.109375 -0.890625 C 3.492188 -1.273438 3.695312 -1.738281 3.71875 -2.28125 L 3.71875 -19.671875 C 3.675781 -20.210938 3.519531 -20.609375 3.25 -20.859375 C 2.75 -21.316406 2.238281 -21.546875 1.71875 -21.546875 L 1.3125 -21.546875 L 1.3125 -21.859375 L 13.265625 -21.859375 C 14.285156 -21.859375 15.128906 -21.9375 15.796875 -22.09375 C 16.460938 -22.25 16.867188 -22.359375 17.015625 -22.421875 L 17.015625 -16.953125 L 16.703125 -16.984375 L 16.703125 -17.328125 C 16.703125 -18.617188 16.222656 -19.535156 15.265625 -20.078125 C 14.804688 -20.347656 14.265625 -20.492188 13.640625 -20.515625 L 8.390625 -20.515625 L 8.390625 -11.421875 L 12.515625 -11.421875 C 13.285156 -11.441406 13.921875 -11.707031 14.421875 -12.21875 C 14.921875 -12.726562 15.171875 -13.359375 15.171875 -14.109375 L 15.171875 -14.390625 L 15.484375 -14.390625 L 15.484375 -7.1875 L 15.171875 -7.1875 L 15.171875 -7.4375 C 15.171875 -8.195312 14.925781 -8.828125 14.4375 -9.328125 C 13.945312 -9.828125 13.328125 -10.085938 12.578125 -10.109375 L 8.390625 -10.109375 L 8.390625 -1.34375 L 12.484375 -1.34375 C 14.003906 -1.34375 15.28125 -1.78125 16.3125 -2.65625 C 17.34375 -3.53125 18.109375 -4.769531 18.609375 -6.375 L 18.921875 -6.375 L 17.484375 0 L 1.3125 0 L 1.3125 -0.3125 Z M 1.71875 -0.3125 "/></g></g></g><g fill="#ffffff" fill-opacity="1"><g transform="translate(170.721192, 328.926699)"><g><path d="M 9.921875 -20.484375 L 8.578125 -20.484375 C 8.535156 -20.484375 8.503906 -20.484375 8.484375 -20.484375 L 8.484375 -2.28125 C 8.503906 -1.738281 8.707031 -1.273438 9.09375 -0.890625 C 9.476562 -0.503906 9.941406 -0.3125 10.484375 -0.3125 L 10.890625 -0.3125 L 10.890625 0 L 1.40625 0 L 1.40625 -0.3125 L 1.8125 -0.3125 C 2.5625 -0.3125 3.132812 -0.632812 3.53125 -1.28125 C 3.695312 -1.570312 3.789062 -1.894531 3.8125 -2.25 L 3.8125 -19.578125 C 3.789062 -20.117188 3.585938 -20.582031 3.203125 -20.96875 C 2.816406 -21.351562 2.351562 -21.546875 1.8125 -21.546875 L 1.40625 -21.546875 L 1.40625 -21.859375 L 12.109375 -21.859375 C 14.128906 -21.859375 15.835938 -21.421875 17.234375 -20.546875 C 17.941406 -20.109375 18.503906 -19.5 18.921875 -18.71875 C 19.335938 -17.9375 19.546875 -16.914062 19.546875 -15.65625 C 19.546875 -14.394531 19.109375 -13.179688 18.234375 -12.015625 C 17.359375 -10.847656 16.085938 -10.179688 14.421875 -10.015625 C 15.628906 -9.617188 16.691406 -8.707031 17.609375 -7.28125 C 19.859375 -3.675781 21.523438 -1.53125 22.609375 -0.84375 C 23.148438 -0.507812 23.820312 -0.332031 24.625 -0.3125 L 24.625 0 L 21.578125 0 C 19.765625 0 18.257812 -0.238281 17.0625 -0.71875 C 15.863281 -1.195312 14.921875 -2.039062 14.234375 -3.25 C 13.835938 -3.9375 12.972656 -5.710938 11.640625 -8.578125 C 11.054688 -9.847656 10.347656 -10.546875 9.515625 -10.671875 L 9.515625 -10.984375 L 10.484375 -10.984375 C 11.421875 -10.984375 12.25 -11.265625 12.96875 -11.828125 C 13.6875 -12.390625 14.171875 -13.304688 14.421875 -14.578125 C 14.503906 -15.015625 14.546875 -15.359375 14.546875 -15.609375 C 14.546875 -17.316406 14.203125 -18.550781 13.515625 -19.3125 C 12.828125 -20.070312 11.941406 -20.460938 10.859375 -20.484375 C 10.648438 -20.484375 10.335938 -20.484375 9.921875 -20.484375 Z M 9.921875 -20.484375 "/></g></g></g><g fill="#ffffff" fill-opacity="1"><g transform="translate(197.228177, 328.926699)"><g><path d="M 23.046875 -0.3125 L 23.328125 -0.3125 L 23.328125 0 L 13.359375 0 L 13.359375 -0.3125 L 13.640625 -0.3125 C 14.097656 -0.3125 14.4375 -0.453125 14.65625 -0.734375 C 14.875 -1.015625 14.984375 -1.28125 14.984375 -1.53125 C 14.984375 -1.78125 14.929688 -2.03125 14.828125 -2.28125 L 13.296875 -6.125 L 6 -6.125 L 4.375 -2.28125 C 4.269531 -2.007812 4.21875 -1.753906 4.21875 -1.515625 C 4.21875 -1.273438 4.332031 -1.015625 4.5625 -0.734375 C 4.789062 -0.453125 5.132812 -0.3125 5.59375 -0.3125 L 5.84375 -0.3125 L 5.84375 0 L -0.84375 0 L -0.84375 -0.3125 L -0.5625 -0.3125 C -0.0820312 -0.3125 0.394531 -0.457031 0.875 -0.75 C 1.351562 -1.039062 1.75 -1.476562 2.0625 -2.0625 L 9.265625 -18.390625 C 10.242188 -20.453125 10.765625 -21.816406 10.828125 -22.484375 L 11.109375 -22.484375 L 20.390625 -2.125 C 20.703125 -1.519531 21.097656 -1.066406 21.578125 -0.765625 C 22.054688 -0.460938 22.546875 -0.3125 23.046875 -0.3125 Z M 6.53125 -7.4375 L 12.765625 -7.4375 L 9.734375 -15.109375 Z M 6.53125 -7.4375 "/></g></g></g><g fill="#ffffff" fill-opacity="1"><g transform="translate(222.767348, 328.926699)"><g><path d="M 1.71875 -0.3125 C 2.257812 -0.3125 2.722656 -0.503906 3.109375 -0.890625 C 3.492188 -1.273438 3.695312 -1.738281 3.71875 -2.28125 L 3.71875 -19.578125 C 3.695312 -20.117188 3.492188 -20.582031 3.109375 -20.96875 C 2.722656 -21.351562 2.257812 -21.546875 1.71875 -21.546875 L 1.3125 -21.546875 L 1.3125 -21.859375 L 10.796875 -21.859375 L 10.765625 -21.546875 L 10.390625 -21.546875 C 9.847656 -21.546875 9.378906 -21.351562 8.984375 -20.96875 C 8.585938 -20.582031 8.390625 -20.117188 8.390625 -19.578125 L 8.390625 -1.34375 L 12.484375 -1.34375 C 14.003906 -1.34375 15.28125 -1.78125 16.3125 -2.65625 C 17.34375 -3.53125 18.109375 -4.769531 18.609375 -6.375 L 18.921875 -6.375 L 17.484375 0 L 1.3125 0 L 1.3125 -0.3125 Z M 1.71875 -0.3125 "/></g></g></g><g fill="#ffffff" fill-opacity="1"><g transform="translate(245.18457, 328.926699)"><g><path d="M 12.640625 -21.859375 C 16.328125 -21.859375 19.238281 -20.878906 21.375 -18.921875 C 23.519531 -16.960938 24.59375 -14.296875 24.59375 -10.921875 C 24.59375 -7.554688 23.519531 -4.894531 21.375 -2.9375 C 19.238281 -0.976562 16.328125 0 12.640625 0 L 1.3125 0 L 1.3125 -0.3125 L 1.71875 -0.3125 C 2.257812 -0.3125 2.722656 -0.503906 3.109375 -0.890625 C 3.492188 -1.273438 3.695312 -1.738281 3.71875 -2.28125 L 3.71875 -19.765625 C 3.71875 -20.265625 3.515625 -20.6875 3.109375 -21.03125 C 2.703125 -21.375 2.238281 -21.546875 1.71875 -21.546875 L 1.3125 -21.546875 L 1.3125 -21.859375 Z M 12.234375 -1.34375 C 13.734375 -1.34375 15.03125 -1.726562 16.125 -2.5 C 17.21875 -3.269531 18.054688 -4.375 18.640625 -5.8125 C 19.222656 -7.257812 19.515625 -8.835938 19.515625 -10.546875 C 19.515625 -12.253906 19.34375 -13.707031 19 -14.90625 C 18.65625 -16.101562 18.171875 -17.117188 17.546875 -17.953125 C 16.253906 -19.679688 14.484375 -20.546875 12.234375 -20.546875 L 8.390625 -20.546875 L 8.390625 -1.34375 Z M 12.234375 -1.34375 "/></g></g></g><g fill="#ffffff" fill-opacity="1"><g transform="translate(274.220336, 328.926699)"><g><path d="M 23.046875 -0.3125 L 23.328125 -0.3125 L 23.328125 0 L 13.359375 0 L 13.359375 -0.3125 L 13.640625 -0.3125 C 14.097656 -0.3125 14.4375 -0.453125 14.65625 -0.734375 C 14.875 -1.015625 14.984375 -1.28125 14.984375 -1.53125 C 14.984375 -1.78125 14.929688 -2.03125 14.828125 -2.28125 L 13.296875 -6.125 L 6 -6.125 L 4.375 -2.28125 C 4.269531 -2.007812 4.21875 -1.753906 4.21875 -1.515625 C 4.21875 -1.273438 4.332031 -1.015625 4.5625 -0.734375 C 4.789062 -0.453125 5.132812 -0.3125 5.59375 -0.3125 L 5.84375 -0.3125 L 5.84375 0 L -0.84375 0 L -0.84375 -0.3125 L -0.5625 -0.3125 C -0.0820312 -0.3125 0.394531 -0.457031 0.875 -0.75 C 1.351562 -1.039062 1.75 -1.476562 2.0625 -2.0625 L 9.265625 -18.390625 C 10.242188 -20.453125 10.765625 -21.816406 10.828125 -22.484375 L 11.109375 -22.484375 L 20.390625 -2.125 C 20.703125 -1.519531 21.097656 -1.066406 21.578125 -0.765625 C 22.054688 -0.460938 22.546875 -0.3125 23.046875 -0.3125 Z M 6.53125 -7.4375 L 12.765625 -7.4375 L 9.734375 -15.109375 Z M 6.53125 -7.4375 "/></g></g></g><g fill="#dbbe67" fill-opacity="1"><g transform="translate(86.745765, 356.12651)"><g><path d="M 9.609375 0 L 7.078125 -3.609375 C 6.765625 -3.585938 6.519531 -3.578125 6.34375 -3.578125 L 3.4375 -3.578125 L 3.4375 0 L 1.765625 0 L 1.765625 -11.75 L 6.34375 -11.75 C 7.863281 -11.75 9.0625 -11.382812 9.9375 -10.65625 C 10.8125 -9.925781 11.25 -8.925781 11.25 -7.65625 C 11.25 -6.75 11.023438 -5.972656 10.578125 -5.328125 C 10.128906 -4.691406 9.488281 -4.226562 8.65625 -3.9375 L 11.4375 0 Z M 6.296875 -5 C 7.359375 -5 8.164062 -5.226562 8.71875 -5.6875 C 9.28125 -6.144531 9.5625 -6.800781 9.5625 -7.65625 C 9.5625 -8.5 9.28125 -9.144531 8.71875 -9.59375 C 8.164062 -10.050781 7.359375 -10.28125 6.296875 -10.28125 L 3.4375 -10.28125 L 3.4375 -5 Z M 6.296875 -5 "/></g></g></g><g fill="#dbbe67" fill-opacity="1"><g transform="translate(105.173008, 356.12651)"><g><path d="M 10.28125 -1.453125 L 10.28125 0 L 1.765625 0 L 1.765625 -11.75 L 10.046875 -11.75 L 10.046875 -10.28125 L 3.4375 -10.28125 L 3.4375 -6.671875 L 9.328125 -6.671875 L 9.328125 -5.25 L 3.4375 -5.25 L 3.4375 -1.453125 Z M 10.28125 -1.453125 "/></g></g></g><g fill="#dbbe67" fill-opacity="1"><g transform="translate(122.643827, 356.12651)"><g><path d="M 5.1875 0.140625 C 4.300781 0.140625 3.445312 0.00390625 2.625 -0.265625 C 1.800781 -0.546875 1.15625 -0.90625 0.6875 -1.34375 L 1.3125 -2.65625 C 1.757812 -2.25 2.332031 -1.921875 3.03125 -1.671875 C 3.726562 -1.421875 4.445312 -1.296875 5.1875 -1.296875 C 6.15625 -1.296875 6.878906 -1.457031 7.359375 -1.78125 C 7.847656 -2.113281 8.09375 -2.554688 8.09375 -3.109375 C 8.09375 -3.503906 7.957031 -3.828125 7.6875 -4.078125 C 7.425781 -4.335938 7.101562 -4.53125 6.71875 -4.65625 C 6.332031 -4.789062 5.785156 -4.945312 5.078125 -5.125 C 4.203125 -5.332031 3.488281 -5.539062 2.9375 -5.75 C 2.394531 -5.96875 1.929688 -6.296875 1.546875 -6.734375 C 1.160156 -7.179688 0.96875 -7.78125 0.96875 -8.53125 C 0.96875 -9.15625 1.132812 -9.71875 1.46875 -10.21875 C 1.800781 -10.71875 2.300781 -11.117188 2.96875 -11.421875 C 3.644531 -11.722656 4.476562 -11.875 5.46875 -11.875 C 6.164062 -11.875 6.847656 -11.785156 7.515625 -11.609375 C 8.191406 -11.429688 8.769531 -11.175781 9.25 -10.84375 L 8.6875 -9.5 C 8.195312 -9.8125 7.671875 -10.046875 7.109375 -10.203125 C 6.554688 -10.367188 6.007812 -10.453125 5.46875 -10.453125 C 4.519531 -10.453125 3.804688 -10.28125 3.328125 -9.9375 C 2.859375 -9.59375 2.625 -9.144531 2.625 -8.59375 C 2.625 -8.1875 2.753906 -7.859375 3.015625 -7.609375 C 3.285156 -7.359375 3.617188 -7.160156 4.015625 -7.015625 C 4.410156 -6.878906 4.953125 -6.734375 5.640625 -6.578125 C 6.523438 -6.367188 7.234375 -6.15625 7.765625 -5.9375 C 8.304688 -5.726562 8.769531 -5.40625 9.15625 -4.96875 C 9.539062 -4.53125 9.734375 -3.941406 9.734375 -3.203125 C 9.734375 -2.585938 9.5625 -2.023438 9.21875 -1.515625 C 8.882812 -1.003906 8.375 -0.597656 7.6875 -0.296875 C 7.007812 -0.00390625 6.175781 0.140625 5.1875 0.140625 Z M 5.1875 0.140625 "/></g></g></g><g fill="#dbbe67" fill-opacity="1"><g transform="translate(139.292451, 356.12651)"><g><path d="M 7.0625 0.140625 C 5.875 0.140625 4.804688 -0.117188 3.859375 -0.640625 C 2.910156 -1.160156 2.164062 -1.878906 1.625 -2.796875 C 1.082031 -3.710938 0.8125 -4.738281 0.8125 -5.875 C 0.8125 -7 1.082031 -8.019531 1.625 -8.9375 C 2.164062 -9.863281 2.910156 -10.582031 3.859375 -11.09375 C 4.804688 -11.613281 5.875 -11.875 7.0625 -11.875 C 8.238281 -11.875 9.300781 -11.613281 10.25 -11.09375 C 11.207031 -10.582031 11.953125 -9.867188 12.484375 -8.953125 C 13.023438 -8.035156 13.296875 -7.007812 13.296875 -5.875 C 13.296875 -4.726562 13.023438 -3.695312 12.484375 -2.78125 C 11.953125 -1.875 11.207031 -1.160156 10.25 -0.640625 C 9.300781 -0.117188 8.238281 0.140625 7.0625 0.140625 Z M 7.0625 -1.359375 C 7.925781 -1.359375 8.703125 -1.550781 9.390625 -1.9375 C 10.078125 -2.332031 10.617188 -2.875 11.015625 -3.5625 C 11.410156 -4.25 11.609375 -5.019531 11.609375 -5.875 C 11.609375 -6.726562 11.410156 -7.5 11.015625 -8.1875 C 10.617188 -8.875 10.078125 -9.410156 9.390625 -9.796875 C 8.703125 -10.191406 7.925781 -10.390625 7.0625 -10.390625 C 6.195312 -10.390625 5.414062 -10.191406 4.71875 -9.796875 C 4.019531 -9.410156 3.472656 -8.875 3.078125 -8.1875 C 2.679688 -7.5 2.484375 -6.726562 2.484375 -5.875 C 2.484375 -5.019531 2.679688 -4.25 3.078125 -3.5625 C 3.472656 -2.875 4.019531 -2.332031 4.71875 -1.9375 C 5.414062 -1.550781 6.195312 -1.359375 7.0625 -1.359375 Z M 7.0625 -1.359375 "/></g></g></g><g fill="#dbbe67" fill-opacity="1"><g transform="translate(159.615774, 356.12651)"><g><path d="M 9.609375 0 L 7.078125 -3.609375 C 6.765625 -3.585938 6.519531 -3.578125 6.34375 -3.578125 L 3.4375 -3.578125 L 3.4375 0 L 1.765625 0 L 1.765625 -11.75 L 6.34375 -11.75 C 7.863281 -11.75 9.0625 -11.382812 9.9375 -10.65625 C 10.8125 -9.925781 11.25 -8.925781 11.25 -7.65625 C 11.25 -6.75 11.023438 -5.972656 10.578125 -5.328125 C 10.128906 -4.691406 9.488281 -4.226562 8.65625 -3.9375 L 11.4375 0 Z M 6.296875 -5 C 7.359375 -5 8.164062 -5.226562 8.71875 -5.6875 C 9.28125 -6.144531 9.5625 -6.800781 9.5625 -7.65625 C 9.5625 -8.5 9.28125 -9.144531 8.71875 -9.59375 C 8.164062 -10.050781 7.359375 -10.28125 6.296875 -10.28125 L 3.4375 -10.28125 L 3.4375 -5 Z M 6.296875 -5 "/></g></g></g><g fill="#dbbe67" fill-opacity="1"><g transform="translate(178.043015, 356.12651)"><g><path d="M 4.09375 -10.28125 L 0.0625 -10.28125 L 0.0625 -11.75 L 9.78125 -11.75 L 9.78125 -10.28125 L 5.75 -10.28125 L 5.75 0 L 4.09375 0 Z M 4.09375 -10.28125 "/></g></g></g><g fill="#dbbe67" fill-opacity="1"><g transform="translate(194.121125, 356.12651)"><g/></g></g><g fill="#dbbe67" fill-opacity="1"><g transform="translate(204.863372, 356.12651)"><g><path d="M 10.359375 0.1875 L 8.796875 -1.375 C 7.753906 -0.363281 6.441406 0.140625 4.859375 0.140625 C 4.078125 0.140625 3.375 0.0078125 2.75 -0.25 C 2.125 -0.507812 1.632812 -0.867188 1.28125 -1.328125 C 0.925781 -1.796875 0.75 -2.328125 0.75 -2.921875 C 0.75 -3.640625 0.96875 -4.273438 1.40625 -4.828125 C 1.851562 -5.378906 2.585938 -5.945312 3.609375 -6.53125 C 3.097656 -7.039062 2.734375 -7.503906 2.515625 -7.921875 C 2.304688 -8.335938 2.203125 -8.769531 2.203125 -9.21875 C 2.203125 -10.007812 2.488281 -10.644531 3.0625 -11.125 C 3.632812 -11.601562 4.40625 -11.84375 5.375 -11.84375 C 6.269531 -11.84375 6.976562 -11.625 7.5 -11.1875 C 8.03125 -10.75 8.296875 -10.148438 8.296875 -9.390625 C 8.296875 -8.804688 8.097656 -8.273438 7.703125 -7.796875 C 7.316406 -7.328125 6.679688 -6.835938 5.796875 -6.328125 L 8.6875 -3.4375 C 9.03125 -4.070312 9.273438 -4.785156 9.421875 -5.578125 L 10.703125 -5.15625 C 10.503906 -4.125 10.164062 -3.226562 9.6875 -2.46875 L 11.265625 -0.890625 Z M 5.375 -10.671875 C 4.84375 -10.671875 4.425781 -10.539062 4.125 -10.28125 C 3.832031 -10.019531 3.6875 -9.675781 3.6875 -9.25 C 3.6875 -8.945312 3.765625 -8.65625 3.921875 -8.375 C 4.085938 -8.09375 4.410156 -7.710938 4.890625 -7.234375 C 5.660156 -7.671875 6.191406 -8.046875 6.484375 -8.359375 C 6.785156 -8.671875 6.9375 -9.007812 6.9375 -9.375 C 6.9375 -9.769531 6.796875 -10.082031 6.515625 -10.3125 C 6.242188 -10.550781 5.863281 -10.671875 5.375 -10.671875 Z M 4.96875 -1.203125 C 6.132812 -1.203125 7.09375 -1.570312 7.84375 -2.3125 L 4.5 -5.640625 C 3.695312 -5.191406 3.132812 -4.773438 2.8125 -4.390625 C 2.488281 -4.003906 2.328125 -3.570312 2.328125 -3.09375 C 2.328125 -2.53125 2.570312 -2.070312 3.0625 -1.71875 C 3.550781 -1.375 4.1875 -1.203125 4.96875 -1.203125 Z M 4.96875 -1.203125 "/></g></g></g><g fill="#dbbe67" fill-opacity="1"><g transform="translate(222.602665, 356.12651)"><g/></g></g><g fill="#dbbe67" fill-opacity="1"><g transform="translate(233.344913, 356.12651)"><g><path d="M 5.1875 0.140625 C 4.300781 0.140625 3.445312 0.00390625 2.625 -0.265625 C 1.800781 -0.546875 1.15625 -0.90625 0.6875 -1.34375 L 1.3125 -2.65625 C 1.757812 -2.25 2.332031 -1.921875 3.03125 -1.671875 C 3.726562 -1.421875 4.445312 -1.296875 5.1875 -1.296875 C 6.15625 -1.296875 6.878906 -1.457031 7.359375 -1.78125 C 7.847656 -2.113281 8.09375 -2.554688 8.09375 -3.109375 C 8.09375 -3.503906 7.957031 -3.828125 7.6875 -4.078125 C 7.425781 -4.335938 7.101562 -4.53125 6.71875 -4.65625 C 6.332031 -4.789062 5.785156 -4.945312 5.078125 -5.125 C 4.203125 -5.332031 3.488281 -5.539062 2.9375 -5.75 C 2.394531 -5.96875 1.929688 -6.296875 1.546875 -6.734375 C 1.160156 -7.179688 0.96875 -7.78125 0.96875 -8.53125 C 0.96875 -9.15625 1.132812 -9.71875 1.46875 -10.21875 C 1.800781 -10.71875 2.300781 -11.117188 2.96875 -11.421875 C 3.644531 -11.722656 4.476562 -11.875 5.46875 -11.875 C 6.164062 -11.875 6.847656 -11.785156 7.515625 -11.609375 C 8.191406 -11.429688 8.769531 -11.175781 9.25 -10.84375 L 8.6875 -9.5 C 8.195312 -9.8125 7.671875 -10.046875 7.109375 -10.203125 C 6.554688 -10.367188 6.007812 -10.453125 5.46875 -10.453125 C 4.519531 -10.453125 3.804688 -10.28125 3.328125 -9.9375 C 2.859375 -9.59375 2.625 -9.144531 2.625 -8.59375 C 2.625 -8.1875 2.753906 -7.859375 3.015625 -7.609375 C 3.285156 -7.359375 3.617188 -7.160156 4.015625 -7.015625 C 4.410156 -6.878906 4.953125 -6.734375 5.640625 -6.578125 C 6.523438 -6.367188 7.234375 -6.15625 7.765625 -5.9375 C 8.304688 -5.726562 8.769531 -5.40625 9.15625 -4.96875 C 9.539062 -4.53125 9.734375 -3.941406 9.734375 -3.203125 C 9.734375 -2.585938 9.5625 -2.023438 9.21875 -1.515625 C 8.882812 -1.003906 8.375 -0.597656 7.6875 -0.296875 C 7.007812 -0.00390625 6.175781 0.140625 5.1875 0.140625 Z M 5.1875 0.140625 "/></g></g></g><g fill="#dbbe67" fill-opacity="1"><g transform="translate(249.993533, 356.12651)"><g><path d="M 6.34375 -11.75 C 7.863281 -11.75 9.0625 -11.382812 9.9375 -10.65625 C 10.8125 -9.925781 11.25 -8.925781 11.25 -7.65625 C 11.25 -6.375 10.8125 -5.367188 9.9375 -4.640625 C 9.0625 -3.921875 7.863281 -3.5625 6.34375 -3.5625 L 3.4375 -3.5625 L 3.4375 0 L 1.765625 0 L 1.765625 -11.75 Z M 6.296875 -5.015625 C 7.359375 -5.015625 8.164062 -5.238281 8.71875 -5.6875 C 9.28125 -6.144531 9.5625 -6.800781 9.5625 -7.65625 C 9.5625 -8.5 9.28125 -9.144531 8.71875 -9.59375 C 8.164062 -10.050781 7.359375 -10.28125 6.296875 -10.28125 L 3.4375 -10.28125 L 3.4375 -5.015625 Z M 6.296875 -5.015625 "/></g></g></g><g fill="#dbbe67" fill-opacity="1"><g transform="translate(268.336873, 356.12651)"><g><path d="M 9.25 -2.9375 L 3 -2.9375 L 1.71875 0 L -0.015625 0 L 5.296875 -11.75 L 6.96875 -11.75 L 12.296875 0 L 10.53125 0 Z M 8.65625 -4.28125 L 6.125 -10.03125 L 3.59375 -4.28125 Z M 8.65625 -4.28125 "/></g></g></g></svg>